<?xml version="1.0" encoding="UTF-8" standalone="no"?>
<!-- Created with Inkscape (http://www.inkscape.org/) -->

<svg
   xmlns:dc="http://purl.org/dc/elements/1.1/"
   xmlns:cc="http://creativecommons.org/ns#"
   xmlns:rdf="http://www.w3.org/1999/02/22-rdf-syntax-ns#"
   xmlns:svg="http://www.w3.org/2000/svg"
   xmlns="http://www.w3.org/2000/svg"
   xmlns:sodipodi="http://sodipodi.sourceforge.net/DTD/sodipodi-0.dtd"
   xmlns:inkscape="http://www.inkscape.org/namespaces/inkscape"
   width="210mm"
   height="297mm"
   viewBox="0 0 210 297"
   version="1.1"
   id="svg8"
   inkscape:version="0.92.1 r15371"
   sodipodi:docname="Array.svg">
  <defs
     id="defs2" />
  <sodipodi:namedview
     id="base"
     pagecolor="#ffffff"
     bordercolor="#666666"
     borderopacity="1.0"
     inkscape:pageopacity="0.0"
     inkscape:pageshadow="2"
     inkscape:zoom="0.49497475"
     inkscape:cx="-121.04287"
     inkscape:cy="638.28574"
     inkscape:document-units="mm"
     inkscape:current-layer="layer1"
     showgrid="false"
     inkscape:window-width="1920"
     inkscape:window-height="1017"
     inkscape:window-x="-8"
     inkscape:window-y="-8"
     inkscape:window-maximized="1" />
  <metadata
     id="metadata5">
    <rdf:RDF>
      <cc:Work
         rdf:about="">
        <dc:format>image/svg+xml</dc:format>
        <dc:type
           rdf:resource="http://purl.org/dc/dcmitype/StillImage" />
        <dc:title></dc:title>
      </cc:Work>
    </rdf:RDF>
  </metadata>
  <g
     inkscape:label="Layer 1"
     inkscape:groupmode="layer"
     id="layer1">
    <path
       style="fill:#000000;stroke-width:0.16480272"
       d="m 6.2687865,147.32907 v -30.90051 h 97.6456035 97.6456 v 30.90051 30.90051 H 103.91439 6.2687865 Z m 192.8191635,0 V 118.9006 H 103.91439 8.7408269 v 28.42847 28.42847 h 95.1735631 95.17356 z m -182.931001,0 V 126.31672 H 37.169295 58.18164 v 21.01235 21.01235 H 37.169295 16.156949 Z m 39.55265,0 V 128.78876 H 37.169295 18.62899 v 18.54031 18.5403 h 18.540305 18.540304 z m 4.944082,0 v -21.01235 h 21.012345 21.012344 v 21.01235 21.01235 H 81.666026 60.653681 Z m 39.552649,0 V 128.78876 H 81.666026 63.125721 v 18.54031 18.5403 h 18.540305 18.540304 z m 4.94408,0 v -21.01235 h 21.01234 21.01235 v 21.01235 21.01235 h -21.01235 -21.01234 z m 39.55265,0 v -18.54031 h -18.54031 -18.5403 v 18.54031 18.5403 h 18.5403 18.54031 z m 4.94408,0 v -21.01235 h 21.01235 21.01234 v 21.01235 21.01235 h -21.01234 -21.01235 z m 39.55265,0 v -18.54031 h -18.5403 -18.54031 v 18.54031 18.5403 h 18.54031 18.5403 z"
       id="path4673"
       inkscape:connector-curvature="0" />
  </g>
</svg>
