<?xml version="1.0" encoding="UTF-8" standalone="no"?>
<!-- Created with Inkscape (http://www.inkscape.org/) -->

<svg
   xmlns:dc="http://purl.org/dc/elements/1.1/"
   xmlns:cc="http://creativecommons.org/ns#"
   xmlns:rdf="http://www.w3.org/1999/02/22-rdf-syntax-ns#"
   xmlns:svg="http://www.w3.org/2000/svg"
   xmlns="http://www.w3.org/2000/svg"
   xmlns:sodipodi="http://sodipodi.sourceforge.net/DTD/sodipodi-0.dtd"
   xmlns:inkscape="http://www.inkscape.org/namespaces/inkscape"
   width="210mm"
   height="297mm"
   viewBox="0 0 210 297"
   version="1.1"
   id="svg8"
   inkscape:version="0.92.1 r15371"
   sodipodi:docname="Conditionals.svg">
  <defs
     id="defs2" />
  <sodipodi:namedview
     id="base"
     pagecolor="#ffffff"
     bordercolor="#666666"
     borderopacity="1.0"
     inkscape:pageopacity="0.0"
     inkscape:pageshadow="2"
     inkscape:zoom="0.49497475"
     inkscape:cx="127.33009"
     inkscape:cy="502.86726"
     inkscape:document-units="mm"
     inkscape:current-layer="layer1"
     showgrid="false"
     inkscape:window-width="1920"
     inkscape:window-height="1017"
     inkscape:window-x="-8"
     inkscape:window-y="-8"
     inkscape:window-maximized="1" />
  <metadata
     id="metadata5">
    <rdf:RDF>
      <cc:Work
         rdf:about="">
        <dc:format>image/svg+xml</dc:format>
        <dc:type
           rdf:resource="http://purl.org/dc/dcmitype/StillImage" />
        <dc:title></dc:title>
      </cc:Work>
    </rdf:RDF>
  </metadata>
  <g
     inkscape:label="Layer 1"
     inkscape:groupmode="layer"
     id="layer1">
    <path
       style="fill:#000000;stroke-width:0.26458332"
       d="m 55.636433,187.09803 c -1.630268,-0.62734 -4.167309,-2.83594 -4.959882,-4.3178 -0.54049,-1.01054 -0.59192,-1.51588 -0.670744,-6.5907 -0.07215,-4.64506 -0.01503,-5.70802 0.368834,-6.86373 0.539997,-1.62577 2.256835,-3.46158 4.371033,-4.67391 l 1.430919,-0.82052 4.44491,-0.002 c 5.04739,-0.003 5.17371,0.0329 7.640955,2.16091 2.229154,1.92265 2.686203,3.06097 2.818373,7.01942 0.121881,3.65026 0.01378,4.33723 -0.802124,5.09736 -0.551317,0.51353 -0.906288,0.53639 -8.33117,0.53639 h -7.755319 v 0.92528 c 0,0.69421 0.242805,1.19403 0.972304,2.0015 1.638661,1.8138 1.739272,1.83572 8.427617,1.83572 h 5.986618 l 0.773396,0.77339 c 0.839099,0.8391 0.94143,1.32715 0.465598,2.22056 -0.633905,1.1902 -0.834787,1.22281 -7.497408,1.21718 -5.641733,-0.005 -6.498782,-0.0626 -7.68391,-0.51867 z m 11.255785,-14.61758 c 0,-1.92112 -0.0048,-1.93394 -1.124479,-3.02734 -1.465451,-1.43101 -2.142353,-1.65796 -4.945089,-1.65796 -3.213419,0 -3.829976,0.17095 -5.248446,1.45517 l -1.235783,1.11883 -0.102021,2.02029 -0.10202,2.02029 h 6.378919 6.378919 z m 16.771699,14.53886 c -0.514689,-0.44271 -0.72031,-0.87007 -0.72031,-1.49708 0,-0.627 0.205621,-1.05436 0.72031,-1.49708 0.639241,-0.54985 0.986644,-0.61958 3.086804,-0.61958 h 2.366496 v -12.30313 -12.30312 h -2.484231 c -2.801559,0 -3.481842,-0.31556 -3.75712,-1.74277 -0.122309,-0.63413 -0.0093,-0.98906 0.505463,-1.5875 l 0.662987,-0.77077 h 3.970343 c 3.837831,0 3.993131,0.0214 4.653118,0.64143 l 0.682774,0.64143 v 13.71221 13.71222 h 2.236509 c 2.580839,0 3.423579,0.29608 3.863123,1.35724 0.370427,0.89428 -0.04187,2.2015 -0.82686,2.62162 -0.269435,0.14419 -3.457696,0.25447 -7.357289,0.25447 -6.835116,0 -6.886694,-0.004 -7.602117,-0.61959 z m 31.615903,0.25431 c -1.52106,-0.54355 -2.89245,-1.49587 -3.43471,-2.38512 -0.64078,-1.05084 -0.63194,-1.5121 0.0455,-2.37329 0.75229,-0.95638 2.07351,-0.94437 3.35044,0.0305 l 0.95308,0.72761 5.11102,0.0818 5.11102,0.0818 0.66512,-0.66512 c 0.70123,-0.70123 0.87873,-1.91232 0.40893,-2.79015 -0.14615,-0.27308 -2.95894,-1.70125 -6.54844,-3.3249 -3.46073,-1.56542 -6.60942,-3.0694 -6.99708,-3.34218 -0.91802,-0.64597 -2.07487,-2.98619 -2.06748,-4.18233 0.006,-1.01584 0.80679,-3.00806 1.53009,-3.8079 0.24666,-0.27276 0.89021,-0.72139 1.43012,-0.99695 0.8811,-0.44969 1.62047,-0.50101 7.2184,-0.50101 6.59623,0 7.23458,0.0968 8.80912,1.33529 1.68337,1.32414 2.05871,2.77193 0.99453,3.83611 -0.92268,0.92268 -2.01264,0.85146 -3.22126,-0.21046 l -0.97868,-0.8599 -5.34679,-0.081 c -4.6567,-0.0705 -5.40237,-0.0254 -5.7774,0.34963 -0.60475,0.60475 -0.53541,1.37158 0.16471,1.82158 0.32742,0.21045 2.78024,1.34838 5.45072,2.52874 2.67047,1.18037 5.42663,2.43558 6.12479,2.78936 3.99044,2.02211 4.86326,7.48496 1.67788,10.5016 -1.68103,1.59198 -2.61835,1.79047 -8.42475,1.78411 -3.6433,-0.004 -5.58983,-0.11236 -6.24885,-0.34786 z m 32.75957,-0.0168 c -2.24971,-0.80246 -4.81568,-3.19336 -5.58273,-5.20183 -0.38696,-1.01327 -0.44146,-2.00073 -0.37194,-6.73982 0.0786,-5.35763 0.10521,-5.59876 0.75817,-6.86706 0.72134,-1.40114 3.1346,-3.57372 4.7134,-4.24334 0.65218,-0.27661 2.0402,-0.37685 5.15938,-0.3726 5.01673,0.007 5.53057,0.16715 7.91569,2.46974 2.1072,2.03428 2.36248,2.75193 2.51035,7.0572 l 0.12294,3.57963 -0.71703,0.85214 -0.71703,0.85215 h -7.78169 -7.78169 v 0.92528 c 0,0.69421 0.24281,1.19403 0.97231,2.0015 1.63767,1.8127 1.74288,1.83572 8.39251,1.83572 5.79814,0 5.96867,0.0153 6.61776,0.59531 1.02675,0.91743 1.11738,1.8119 0.28395,2.80238 l -0.70315,0.83565 -6.39263,-0.0116 c -4.6848,-0.009 -6.66137,-0.10747 -7.39857,-0.37043 z m 10.92782,-14.69844 c 0,-1.76744 -0.045,-1.90114 -0.99219,-2.95086 -1.34297,-1.48829 -2.24636,-1.8124 -5.05165,-1.8124 -3.33709,0 -3.91332,0.16939 -5.37765,1.58081 l -1.27851,1.23233 v 1.90072 1.90072 h 6.35 6.35 z M 53.230215,134.67736 c -0.60548,-0.29317 -1.154663,-1.26611 -1.154663,-2.04561 0,-0.26294 0.291971,-0.79312 0.648824,-1.17817 0.614338,-0.66288 0.783098,-0.7001 3.175,-0.7001 h 2.526175 v -7.8052 -7.80521 h -2.48423 c -2.032991,0 -2.595284,-0.0899 -3.095625,-0.49508 -0.826276,-0.66908 -0.837806,-2.2004 -0.02271,-3.01653 0.544608,-0.5453 0.872228,-0.59579 4.375875,-0.6744 3.769827,-0.0846 3.791028,-0.0817 4.623608,0.61883 l 0.836417,0.7038 v 9.2369 9.23689 h 2.236509 c 1.23008,0 2.531719,0.13451 2.892534,0.29891 1.469445,0.66953 1.469445,2.966 0,3.63552 -0.853985,0.3891 -13.751646,0.37976 -14.557713,-0.0106 z m 33.485401,-0.46394 -0.773399,-0.7734 v -9.14847 -9.14848 h -1.34031 c -1.669814,0 -2.22899,-0.29079 -2.598721,-1.3514 -0.218808,-0.62767 -0.209349,-0.99857 0.03832,-1.50253 0.429294,-0.87355 0.814398,-1.05611 2.643944,-1.25341 l 1.521354,-0.16407 v -1.47162 c 0,-2.10717 0.469037,-3.39328 1.761958,-4.83132 1.848379,-2.05584 3.168512,-2.48433 7.71815,-2.50516 l 3.791566,-0.0174 0.640202,0.74236 c 0.77081,0.89382 0.81578,1.76003 0.13506,2.60177 -0.471928,0.58356 -0.737162,0.63471 -4.034889,0.77799 -3.74814,0.16285 -4.697169,0.42633 -5.400177,1.49925 -0.418695,0.63901 -0.580004,2.70214 -0.25268,3.23177 0.09668,0.15643 1.169993,0.27499 2.48947,0.27499 2.082464,0 2.378308,0.0626 2.894803,0.61236 0.724056,0.77073 0.734074,1.76024 0.02692,2.65925 -0.526621,0.66949 -0.652547,0.69714 -3.174999,0.69714 h -2.62663 v 9.3735 9.37351 l -0.69714,0.54837 c -0.966052,0.75989 -1.849858,0.68791 -2.762795,-0.22503 z m 36.455114,-1.674 c -3.64559,-4.59976 -4.63117,-5.98118 -4.98863,-6.99221 -0.25984,-0.73495 -0.3576,-2.63878 -0.3576,-6.96456 0,-5.17217 0.0646,-6.12063 0.4926,-7.23003 0.64682,-1.6767 6.32348,-8.96633 7.21957,-9.27096 1.3035,-0.44312 2.96692,1.00427 2.642,2.29887 -0.0854,0.34013 -1.46337,2.31116 -3.06224,4.38008 -1.76653,2.28588 -2.9694,4.09416 -3.06601,4.60918 -0.0875,0.46613 -0.12155,3.07199 -0.0758,5.7908 l 0.0832,4.94329 1.05833,1.45772 c 0.58208,0.80175 1.99187,2.67549 3.13287,4.16386 1.82518,2.38087 2.05565,2.80405 1.91743,3.52073 -0.2046,1.06087 -1.04979,1.74063 -2.16425,1.74063 -0.80859,0 -1.07275,-0.22833 -2.83149,-2.4474 z m 24.23464,2.05019 c -0.72245,-0.50602 -1.00863,-1.76631 -0.58219,-2.56384 0.17965,-0.33595 1.36258,-1.92051 2.62875,-3.52124 3.67192,-4.64217 3.42773,-3.94149 3.42888,-9.83851 5.2e-4,-2.7918 -0.11952,-5.39295 -0.2668,-5.78032 -0.14727,-0.38737 -1.57602,-2.37119 -3.175,-4.40848 -1.92268,-2.44974 -2.90721,-3.92638 -2.90721,-4.36034 0,-0.72644 1.30803,-2.20298 1.95157,-2.20298 0.22263,0 0.67827,0.1294 1.01254,0.28756 0.83028,0.39283 6.00763,7.0442 6.82547,8.76872 0.6474,1.36511 0.66146,1.52733 0.66146,7.63118 v 6.23641 l -0.79375,1.49982 c -0.43657,0.8249 -2.07718,3.10844 -3.64582,5.07452 -2.60957,3.27078 -2.92512,3.57471 -3.71144,3.57471 -0.47266,0 -1.11456,-0.17874 -1.42646,-0.39721 z M 56.857255,105.4501 c -0.822717,-1.04592 -0.774278,-3.50864 0.08875,-4.51197 0.584693,-0.67974 0.789696,-0.74082 2.491508,-0.74235 1.599533,-0.001 1.94833,0.0865 2.537885,0.63976 0.596295,0.5596 0.683491,0.85649 0.683491,2.32713 0,1.43698 -0.09582,1.78152 -0.649433,2.33513 -0.573646,0.57365 -0.880161,0.64944 -2.626629,0.64944 -1.820861,0 -2.020558,-0.0551 -2.525568,-0.69714 z"
       id="path4517"
       inkscape:connector-curvature="0" />
  </g>
</svg>
