<?xml version="1.0" encoding="UTF-8" standalone="no"?>
<!-- Created with Inkscape (http://www.inkscape.org/) -->

<svg
   xmlns:dc="http://purl.org/dc/elements/1.1/"
   xmlns:cc="http://creativecommons.org/ns#"
   xmlns:rdf="http://www.w3.org/1999/02/22-rdf-syntax-ns#"
   xmlns:svg="http://www.w3.org/2000/svg"
   xmlns="http://www.w3.org/2000/svg"
   xmlns:sodipodi="http://sodipodi.sourceforge.net/DTD/sodipodi-0.dtd"
   xmlns:inkscape="http://www.inkscape.org/namespaces/inkscape"
   width="210mm"
   height="297mm"
   viewBox="0 0 210 297"
   version="1.1"
   id="svg8"
   inkscape:version="0.92.1 r15371"
   sodipodi:docname="DataTypes.svg">
  <defs
     id="defs2" />
  <sodipodi:namedview
     id="base"
     pagecolor="#ffffff"
     bordercolor="#666666"
     borderopacity="1.0"
     inkscape:pageopacity="0.0"
     inkscape:pageshadow="2"
     inkscape:zoom="0.49497475"
     inkscape:cx="-278.11575"
     inkscape:cy="661.33983"
     inkscape:document-units="mm"
     inkscape:current-layer="layer1"
     showgrid="false"
     inkscape:window-width="1920"
     inkscape:window-height="1017"
     inkscape:window-x="-8"
     inkscape:window-y="-8"
     inkscape:window-maximized="1" />
  <metadata
     id="metadata5">
    <rdf:RDF>
      <cc:Work
         rdf:about="">
        <dc:format>image/svg+xml</dc:format>
        <dc:type
           rdf:resource="http://purl.org/dc/dcmitype/StillImage" />
        <dc:title></dc:title>
      </cc:Work>
    </rdf:RDF>
  </metadata>
  <g
     inkscape:label="Layer 1"
     inkscape:groupmode="layer"
     id="layer1">
    <path
       style="fill:#000000;stroke-width:0.26458332"
       d="m 39.089781,185.27949 c -0.421279,-0.44843 -0.614512,-0.94847 -0.587906,-1.52135 0.06925,-1.49116 8.495057,-29.64177 9.033193,-30.17991 0.654137,-0.65414 2.317284,-0.65556 2.940744,-0.003 0.663614,0.6951 9.050326,30.06693 8.832735,30.93388 -0.335293,1.33592 -2.161617,1.88549 -3.239664,0.97487 -0.350634,-0.29618 -0.868175,-1.55944 -1.436261,-3.50573 l -0.888106,-3.04271 -4.791061,-0.072 c -4.394015,-0.0661 -4.802351,-0.0332 -4.927318,0.39688 -1.258383,4.3305 -1.862535,5.93802 -2.363565,6.28896 -0.848203,0.59411 -1.860635,0.48773 -2.572791,-0.27033 z m 13.235298,-10.89545 c 0,-0.30143 -3.279476,-11.43903 -3.348043,-11.37046 -0.05481,0.0548 -1.937202,6.24191 -3.093481,10.16775 l -0.40912,1.38907 h 3.425322 c 1.883927,0 3.425322,-0.0839 3.425322,-0.18636 z m 30.510524,11.29701 c -1.01119,-0.40742 -1.141775,-1.08608 -1.141775,-5.93389 v -4.6476 l -3.505729,-0.008 c -2.337731,-0.006 -3.645593,-0.1158 -3.925533,-0.33073 -1.169482,-0.8979 -1.254347,-2.73176 -0.161832,-3.49699 0.743884,-0.52103 10.122291,-0.57149 10.791023,-0.0581 0.938985,0.72093 1.035404,1.40415 1.035404,7.33673 v 5.85859 l -0.773398,0.77339 c -0.796546,0.79655 -1.316963,0.91036 -2.31816,0.50697 z M 99.685494,169.4014 v -16.5763 l 7.342186,0.0959 c 6.82867,0.0892 7.42871,0.13553 8.57929,0.66261 1.74148,0.79778 3.52296,2.53472 4.36508,4.25596 0.62432,1.27606 0.72016,1.79987 0.73302,4.00619 0.018,3.08884 -0.37959,4.55883 -1.70763,6.31347 -0.99734,1.31771 -1.00556,1.34746 -0.49919,1.80571 0.28316,0.25626 0.89886,1.24621 1.36823,2.19989 0.79984,1.62518 0.85291,1.90858 0.84577,4.51717 -0.007,2.43723 -0.0939,2.9692 -0.70151,4.27952 -0.81727,1.76238 -2.40266,3.38897 -4.13465,4.24209 -1.19456,0.5884 -1.52504,0.61467 -8.71612,0.69285 l -7.474476,0.0813 z m 14.535956,11.7918 c 1.60307,-0.81782 2.25793,-2.12483 2.25803,-4.50669 1e-4,-2.20786 -0.4727,-3.34879 -1.7974,-4.33742 -0.68632,-0.5122 -1.14749,-0.5634 -5.75468,-0.639 l -5.00857,-0.0822 v 5.04312 5.04312 h 4.64074 c 4.09419,0 4.76101,-0.0614 5.66188,-0.52095 z m 0.46063,-14.72025 c 1.32953,-0.99223 1.79749,-2.1278 1.79749,-4.36189 0,-1.70365 -0.10011,-2.15723 -0.65798,-2.98104 -1.18796,-1.75429 -2.16231,-2.02212 -7.35609,-2.02212 h -4.54667 v 5.04312 5.04312 l 5.00857,-0.0822 c 4.60719,-0.0756 5.06836,-0.1268 5.75468,-0.639 z m 29.53685,19.2081 c -1.01119,-0.40742 -1.14177,-1.08608 -1.14177,-5.93389 v -4.6476 h -3.53324 c -3.38373,0 -3.56287,-0.0275 -4.23334,-0.64882 -0.91418,-0.84724 -0.93495,-2.05078 -0.0507,-2.93508 0.64413,-0.64412 0.69008,-0.64936 5.6224,-0.64102 3.49147,0.006 5.09802,0.10444 5.39276,0.33073 0.93899,0.72093 1.03541,1.40415 1.03541,7.33673 v 5.85859 l -0.7734,0.77339 c -0.79655,0.79655 -1.31696,0.91036 -2.31816,0.50697 z m 25.69872,-0.36161 c -0.7357,-0.34258 -1.74773,-1.10781 -2.24896,-1.70051 -0.50123,-0.5927 -2.10195,-3.43663 -3.55716,-6.31985 l -2.64583,-5.24223 v -2.64583 -2.64583 l 2.88319,-5.48493 c 4.21351,-8.01571 4.48133,-8.22231 10.83916,-8.36142 4.71338,-0.10314 5.79181,0.023 6.53303,0.76423 0.71484,0.71484 0.67451,2.12505 -0.0809,2.82905 -0.54971,0.51229 -0.95445,0.56143 -5.28275,0.64143 -3.7386,0.0691 -4.76803,0.16733 -5.08555,0.48528 -0.21896,0.21925 -1.55408,2.54097 -2.96694,5.15937 -3.60952,6.68941 -3.60342,6.40248 -0.2733,12.84757 1.38616,2.68276 2.75883,5.14564 3.05038,5.47306 0.50958,0.57228 0.70047,0.59532 4.93313,0.59532 4.43403,0 5.18817,0.13277 5.8812,1.0354 0.53395,0.69546 0.3941,1.84411 -0.3103,2.5485 -0.6424,0.6424 -0.7018,0.6494 -5.4901,0.64684 -4.52528,-0.002 -4.92782,-0.0432 -6.1783,-0.62545 z M 39.443939,133.03411 c -1.254294,-0.51653 -1.518102,-2.29686 -0.492344,-3.32261 0.625594,-0.6256 0.780981,-0.64944 4.233333,-0.64944 h 3.583902 v -12.30312 -12.30313 h -3.542564 c -3.952972,0 -4.518812,-0.20478 -4.815454,-1.74277 -0.122276,-0.63396 -0.0093,-0.98921 0.504975,-1.5875 l 0.662503,-0.77077 5.711936,-0.0807 5.711937,-0.0807 v 14.43438 14.43437 h 1.984375 1.984375 l 0.0039,-4.43177 c 0.0043,-4.83371 0.160374,-5.50887 1.412674,-6.10933 0.866478,-0.41546 2.131129,-0.0352 2.562288,0.77041 0.141706,0.26478 0.254471,3.16685 0.254471,6.54899 0,5.58455 -0.0407,6.12378 -0.505539,6.69812 l -0.505537,0.62462 -9.085608,0.0545 c -4.997083,0.03 -9.345714,-0.0526 -9.663623,-0.18351 z m 43.391664,-0.005 c -1.01119,-0.40743 -1.141775,-1.08609 -1.141775,-5.9339 v -4.6476 l -3.505729,-0.008 c -2.337731,-0.006 -3.645593,-0.1158 -3.925533,-0.33073 -1.169482,-0.8979 -1.254347,-2.73176 -0.161832,-3.49699 0.743884,-0.52104 10.122291,-0.5715 10.791023,-0.0581 0.938985,0.72093 1.035404,1.40414 1.035404,7.33673 v 5.85858 l -0.773398,0.7734 c -0.796546,0.79655 -1.316963,0.91036 -2.31816,0.50697 z m 16.849891,-7.28271 c 0,-8.20713 0.06292,-8.62825 1.488766,-9.96415 1.13832,-1.0665 2.54865,-1.25858 9.293,-1.26567 l 6.15156,-0.006 v -5.02708 -5.02709 h -7.89138 -7.89137 l -0.57529,-0.61236 c -0.715131,-0.76122 -0.746019,-2.02845 -0.0698,-2.86405 l 0.50548,-0.62463 7.82491,-0.0774 c 8.56422,-0.0847 9.40987,0.0166 10.87537,1.30335 1.35778,1.19214 1.51169,2.14039 1.41111,8.69416 l -0.088,5.73266 -0.74129,0.9713 c -1.32109,1.73103 -1.49494,1.76449 -9.16745,1.76449 h -6.8923 v 5.15938 5.15937 h 7.69326 7.69327 l 0.7734,0.7734 c 0.42537,0.42537 0.7734,1.02984 0.7734,1.34327 0,0.31343 -0.34803,0.9179 -0.7734,1.34327 l -0.7734,0.7734 h -9.80993 -9.809936 z m 44.533436,7.2827 c -1.01119,-0.40742 -1.14177,-1.08608 -1.14177,-5.93389 v -4.6476 h -3.53324 c -3.38373,0 -3.56287,-0.0275 -4.23334,-0.64883 -0.91418,-0.84723 -0.93495,-2.05078 -0.0507,-2.93507 0.64413,-0.64413 0.69008,-0.64937 5.6224,-0.64102 3.49147,0.006 5.09802,0.10444 5.39276,0.33073 0.93899,0.72093 1.03541,1.40414 1.03541,7.33673 v 5.85858 l -0.7734,0.7734 c -0.79655,0.79655 -1.31696,0.91036 -2.31816,0.50697 z m 17.62329,-0.50697 c -0.84163,-0.84163 -0.92813,-1.24336 -0.47964,-2.22769 0.52369,-1.14936 1.13774,-1.23225 9.12882,-1.23225 h 7.5456 l -0.0836,-4.52142 -0.0836,-4.52142 -0.74235,-0.63795 c -0.72665,-0.62445 -0.84594,-0.63796 -5.63443,-0.63796 -4.84126,0 -4.89881,-0.007 -5.54149,-0.64943 -0.82237,-0.82237 -0.8263,-1.76113 -0.0113,-2.70925 l 0.63809,-0.74236 5.17942,-0.0863 5.17943,-0.0863 0.53248,-0.67695 c 0.48433,-0.61572 0.53249,-1.06857 0.53249,-5.00689 v -4.32995 h -7.89138 -7.89137 l -0.57529,-0.61236 c -1.05516,-1.12316 -0.65492,-2.82781 0.78152,-3.32856 1.03516,-0.36085 14.96416,-0.39067 16.50257,-0.0353 0.69333,0.16015 1.39242,0.60201 2.02706,1.28121 1.21578,1.30115 1.39712,2.50266 1.22625,8.12457 -0.11276,3.71011 -0.18111,4.16211 -0.82989,5.48816 l -0.707,1.44506 0.72929,1.2931 c 0.71723,1.27174 0.73059,1.37839 0.80821,6.45249 0.0756,4.94447 0.0536,5.20848 -0.52917,6.33842 -0.43114,0.83596 -0.94741,1.35565 -1.77418,1.78594 -1.14121,0.59394 -1.33782,0.60689 -9.21462,0.60689 h -8.04853 z"
       id="path4634"
       inkscape:connector-curvature="0" />
  </g>
</svg>
