<?xml version="1.0" encoding="UTF-8" standalone="no"?>
<!-- Created with Inkscape (http://www.inkscape.org/) -->

<svg
   xmlns:dc="http://purl.org/dc/elements/1.1/"
   xmlns:cc="http://creativecommons.org/ns#"
   xmlns:rdf="http://www.w3.org/1999/02/22-rdf-syntax-ns#"
   xmlns:svg="http://www.w3.org/2000/svg"
   xmlns="http://www.w3.org/2000/svg"
   xmlns:sodipodi="http://sodipodi.sourceforge.net/DTD/sodipodi-0.dtd"
   xmlns:inkscape="http://www.inkscape.org/namespaces/inkscape"
   width="210mm"
   height="297mm"
   viewBox="0 0 210 297"
   version="1.1"
   id="svg8"
   inkscape:version="0.92.1 r15371"
   sodipodi:docname="FlowCharts.svg">
  <defs
     id="defs2" />
  <sodipodi:namedview
     id="base"
     pagecolor="#ffffff"
     bordercolor="#666666"
     borderopacity="1.0"
     inkscape:pageopacity="0.0"
     inkscape:pageshadow="2"
     inkscape:zoom="0.49497475"
     inkscape:cx="-278.11575"
     inkscape:cy="661.33983"
     inkscape:document-units="mm"
     inkscape:current-layer="layer1"
     showgrid="false"
     inkscape:window-width="1920"
     inkscape:window-height="1017"
     inkscape:window-x="-8"
     inkscape:window-y="-8"
     inkscape:window-maximized="1" />
  <metadata
     id="metadata5">
    <rdf:RDF>
      <cc:Work
         rdf:about="">
        <dc:format>image/svg+xml</dc:format>
        <dc:type
           rdf:resource="http://purl.org/dc/dcmitype/StillImage" />
        <dc:title></dc:title>
      </cc:Work>
    </rdf:RDF>
  </metadata>
  <g
     inkscape:label="Layer 1"
     inkscape:groupmode="layer"
     id="layer1">
    <path
       style="fill:#000000;stroke-width:0.26458335"
       d="m 136.67881,179.03608 v -11.64166 h 5.42396 5.42396 V 156.5465 145.69858 h -12.36747 -12.36747 l -7.07939,7.07575 -7.07939,7.07575 -6.94716,-6.94345 -6.947173,-6.94346 H 81.312909 67.887143 v 9.39271 9.3927 h 5.291667 5.291667 v 12.03855 12.03854 H 66.431934 54.393392 v -12.03854 -12.03855 h 5.291667 5.291667 v -10.84791 -10.84792 h 15.017261 15.017264 l 6.017109,-6.02138 6.01712,-6.02138 v -6.01716 -6.01716 h -5.29167 -5.291666 V 106.40796 93.840255 h 12.435416 12.43542 v 12.567705 12.56771 h -5.68854 -5.68855 v 5.88913 5.88914 l 6.02139,6.01711 6.02138,6.01712 h 14.05233 14.05234 l 0.16399,0.99219 c 0.0902,0.5457 0.16531,6.0821 0.16691,12.30312 l 0.003,11.31094 h 4.7625 4.7625 v 11.64166 11.64167 h -11.64167 -11.64167 z m 20.6375,0 v -8.99583 h -8.99583 -8.99583 v 8.99583 8.99584 h 8.99583 8.99583 z m -81.491667,-2.24895 v -9.39271 h -9.392709 -9.392708 v 9.39271 9.3927 h 9.392708 9.392709 z m 38.497667,-26.59142 5.55232,-5.55704 -5.62083,-5.62083 -5.62082,-5.62082 -5.62083,5.62082 -5.620824,5.62083 5.552324,5.55704 c 3.05377,3.05637 5.61397,5.55704 5.68933,5.55704 0.0754,0 2.63556,-2.50067 5.68933,-5.55704 z m 4.36483,-43.78775 v -9.921865 h -9.78958 -9.789582 v 9.921865 9.92187 h 9.789582 9.78958 z"
       id="path4608"
       inkscape:connector-curvature="0" />
  </g>
</svg>
