<?xml version="1.0" encoding="UTF-8" standalone="no"?>
<svg
   xmlns:dc="http://purl.org/dc/elements/1.1/"
   xmlns:cc="http://creativecommons.org/ns#"
   xmlns:rdf="http://www.w3.org/1999/02/22-rdf-syntax-ns#"
   xmlns:svg="http://www.w3.org/2000/svg"
   xmlns="http://www.w3.org/2000/svg"
   id="svg8"
   version="1.1"
   viewBox="0 0 210 297"
   height="297mm"
   width="210mm">
  <defs
     id="defs2" />
  <metadata
     id="metadata5">
    <rdf:RDF>
      <cc:Work
         rdf:about="">
        <dc:format>image/svg+xml</dc:format>
        <dc:type
           rdf:resource="http://purl.org/dc/dcmitype/StillImage" />
        <dc:title></dc:title>
      </cc:Work>
    </rdf:RDF>
  </metadata>
  <g
     id="layer1">
    <path
       id="path4686"
       d="m 19.657104,141.44914 v -16.68822 h 16.688222 16.688222 v 7.83002 7.83002 h 7.03295 7.032949 l 0.0457,-1.33591 0.0457,-1.33591 3.717282,1.80939 c 2.044505,0.99516 3.806259,1.80986 3.91501,1.81045 0.155684,8.4e-4 0.197727,-1.76472 0.197727,-8.30349 v -8.30457 h 16.686745 16.686749 l 0.041,7.86956 0.041,7.86957 h 7.1182 7.1182 l 0.0457,-1.38169 0.0457,-1.38169 3.63075,1.81669 c 1.99692,0.99918 3.70253,1.81669 3.79025,1.81669 0.10519,0 0.1595,-2.82789 0.1595,-8.30456 v -8.30457 h 16.68675 16.68674 l 0.041,7.86956 0.041,7.86957 6.60411,0.0413 6.6041,0.0413 v -1.34628 c 0,-0.74046 0.0437,-1.34629 0.0971,-1.34629 0.0534,0 1.68097,0.8186 3.6168,1.8191 1.93584,1.0005 3.56491,1.81909 3.62018,1.81909 0.0553,0 0.10048,-1.10332 0.10048,-2.45182 v -2.45182 h 4.90364 4.90365 v 4.82455 4.82456 h -4.90365 -4.90364 v -2.29364 c 0,-1.43682 -0.0596,-2.29364 -0.15956,-2.29364 -0.0878,0 -1.72433,0.783 -3.63682,1.74 -1.91248,0.957 -3.51346,1.74 -3.55772,1.74 -0.0443,0 -0.0805,-0.60504 -0.0805,-1.34454 v -1.34455 h -6.64365 -6.64365 v 7.83002 7.83002 h -16.68823 -16.68822 v -8.30457 c 0,-5.47667 -0.0543,-8.30457 -0.1595,-8.30457 -0.0877,0 -1.79333,0.81752 -3.79025,1.8167 l -3.63075,1.81669 -0.0457,-1.38169 -0.0457,-1.38169 h -7.1182 -7.1182 l -0.041,7.86956 -0.041,7.86957 H 91.707619 75.020874 v -8.30457 c 0,-4.56751 -0.05891,-8.30457 -0.13091,-8.30457 -0.301614,0 -2.308194,0.90166 -4.953312,2.22576 l -2.824888,1.4141 v -1.42612 -1.42612 l -6.999562,0.0412 -6.999562,0.0412 -0.04102,7.86956 -0.04102,7.86957 H 36.343849 19.657104 Z m 31.63644,0 V 126.50092 H 36.345326 21.397108 v 14.94822 14.94822 h 14.948218 14.948218 z m 55.363776,0 V 126.50092 H 91.709097 76.760879 v 14.94822 14.94822 h 14.948218 14.948223 z m 55.36377,0 v -14.94822 h -14.94822 -14.94821 v 14.94822 14.94822 h 14.94821 14.94822 z"
       style="fill:#000000;stroke-width:0.1581822" />
  </g>
</svg>
