<?xml version="1.0" encoding="UTF-8" standalone="no"?>
<!-- Created with Inkscape (http://www.inkscape.org/) -->

<svg
   xmlns:dc="http://purl.org/dc/elements/1.1/"
   xmlns:cc="http://creativecommons.org/ns#"
   xmlns:rdf="http://www.w3.org/1999/02/22-rdf-syntax-ns#"
   xmlns:svg="http://www.w3.org/2000/svg"
   xmlns="http://www.w3.org/2000/svg"
   xmlns:sodipodi="http://sodipodi.sourceforge.net/DTD/sodipodi-0.dtd"
   xmlns:inkscape="http://www.inkscape.org/namespaces/inkscape"
   width="210mm"
   height="297mm"
   viewBox="0 0 210 297"
   version="1.1"
   id="svg8"
   inkscape:version="0.92.1 r15371"
   sodipodi:docname="LVLogoBlack.svg">
  <defs
     id="defs2" />
  <sodipodi:namedview
     id="base"
     pagecolor="#ffffff"
     bordercolor="#666666"
     borderopacity="1.0"
     inkscape:pageopacity="0.0"
     inkscape:pageshadow="2"
     inkscape:zoom="0.49497475"
     inkscape:cx="-278.11575"
     inkscape:cy="661.33983"
     inkscape:document-units="mm"
     inkscape:current-layer="layer1"
     showgrid="false"
     inkscape:window-width="1920"
     inkscape:window-height="1017"
     inkscape:window-x="-8"
     inkscape:window-y="-8"
     inkscape:window-maximized="1" />
  <metadata
     id="metadata5">
    <rdf:RDF>
      <cc:Work
         rdf:about="">
        <dc:format>image/svg+xml</dc:format>
        <dc:type
           rdf:resource="http://purl.org/dc/dcmitype/StillImage" />
        <dc:title></dc:title>
      </cc:Work>
    </rdf:RDF>
  </metadata>
  <g
     inkscape:label="Layer 1"
     inkscape:groupmode="layer"
     id="layer1">
    <path
       style="fill:#000000;stroke-width:0.09193211"
       d="m 135.3624,265.57529 c -0.33752,-0.0578 -0.76237,-0.64652 -0.94684,-1.31214 -0.078,-0.28132 -0.19913,-0.69766 -0.26926,-0.92519 -0.0701,-0.22753 -0.21499,-0.72396 -0.32192,-1.10318 -0.10693,-0.37922 -0.2735,-0.9584 -0.37016,-1.28705 -0.0967,-0.32866 -0.26103,-0.90783 -0.36523,-1.28705 -0.29649,-1.0789 -0.43435,-1.56218 -0.6294,-2.20637 -0.0995,-0.32866 -0.20884,-0.7348 -0.24297,-0.90254 -0.0341,-0.16773 -0.11996,-0.41594 -0.19073,-0.55159 -0.0708,-0.13564 -0.12892,-0.33953 -0.12922,-0.4531 0,-0.11356 -0.0785,-0.44452 -0.17379,-0.73545 -0.0953,-0.29094 -0.2638,-0.85994 -0.37452,-1.26444 -0.11071,-0.4045 -0.25844,-0.92162 -0.32828,-1.14915 -0.0698,-0.22753 -0.21446,-0.72396 -0.32139,-1.10318 -0.10693,-0.37922 -0.27283,-0.9584 -0.36867,-1.28705 -0.18998,-0.65148 -0.48921,-1.71209 -0.68733,-2.4362 -0.0692,-0.25282 -0.1955,-0.6872 -0.28075,-0.96529 -0.0853,-0.2781 -0.21,-0.71247 -0.27722,-0.96529 -0.0672,-0.25281 -0.21075,-0.76993 -0.31893,-1.14915 -0.1082,-0.37922 -0.27137,-0.95839 -0.36262,-1.28705 -0.28785,-1.03677 -0.63233,-2.23094 -0.82214,-2.84989 -0.10078,-0.32866 -0.26546,-0.88715 -0.36596,-1.24109 -0.35832,-1.26192 -0.57413,-2.02913 -0.69818,-2.48216 -0.0692,-0.25282 -0.21589,-0.76994 -0.32591,-1.14916 -0.11002,-0.37922 -0.27594,-0.95839 -0.36871,-1.28705 -0.0928,-0.32865 -0.23794,-0.82509 -0.32258,-1.10318 -0.0846,-0.2781 -0.20849,-0.71247 -0.2752,-0.96529 -0.0667,-0.25281 -0.18775,-0.68719 -0.26895,-0.96528 -0.0812,-0.2781 -0.22476,-0.79522 -0.31901,-1.14916 -0.0942,-0.35393 -0.21251,-0.76763 -0.26282,-0.91932 -0.0975,-0.29398 -0.34447,-1.14108 -0.65025,-2.2303 -0.10306,-0.3671 -0.27387,-0.96696 -0.37957,-1.33301 -0.10571,-0.36607 -0.25029,-0.87241 -0.32129,-1.12522 -0.32469,-1.15609 -0.7992,-2.81304 -1.05309,-3.67729 -0.0891,-0.30338 -0.23373,-0.82049 -0.32134,-1.14915 -0.2705,-1.01477 -0.52131,-1.86298 -0.70241,-2.37543 -0.0954,-0.26995 -0.17345,-0.56972 -0.17345,-0.66614 0,-0.0964 -0.0771,-0.41336 -0.17125,-0.7043 -0.16496,-0.50956 -0.42933,-1.40367 -0.70006,-2.36762 -0.071,-0.25281 -0.21911,-0.76993 -0.32913,-1.14915 -0.11002,-0.37922 -0.28238,-0.97907 -0.38302,-1.33301 -0.10065,-0.35394 -0.25591,-0.89174 -0.34504,-1.19512 -0.0891,-0.30338 -0.23333,-0.82049 -0.32045,-1.14915 -0.0871,-0.32866 -0.23769,-0.86646 -0.33458,-1.19512 -0.0969,-0.32866 -0.25493,-0.86646 -0.35119,-1.19512 -0.0963,-0.32865 -0.2606,-0.88714 -0.36517,-1.24108 -0.44253,-1.4977 -0.99841,-3.58804 -1.07569,-4.04501 -0.0342,-0.20225 -0.15998,-0.55356 -0.2795,-0.78069 -0.11953,-0.22714 -0.21732,-0.50621 -0.21732,-0.62018 0,-0.11396 -0.078,-0.44525 -0.17322,-0.73619 -0.0953,-0.29093 -0.26183,-0.85993 -0.37013,-1.26443 -0.1083,-0.4045 -0.25187,-0.92162 -0.31903,-1.14915 -0.0672,-0.22753 -0.20729,-0.70328 -0.31139,-1.05722 -0.1041,-0.35394 -0.27484,-0.93311 -0.37942,-1.28705 -0.10457,-0.35394 -0.27449,-0.9538 -0.37758,-1.33302 -0.20152,-0.74126 -0.33868,-1.22809 -0.64081,-2.27437 -0.1057,-0.36605 -0.27162,-0.94523 -0.36871,-1.28705 -0.0971,-0.34181 -0.24578,-0.84902 -0.33043,-1.12711 -0.0846,-0.2781 -0.20596,-0.71248 -0.26959,-0.96529 -0.12441,-0.49431 -0.47179,-1.7186 -0.78255,-2.75796 -0.10582,-0.35394 -0.26987,-0.91243 -0.36455,-1.24109 -0.15521,-0.53872 -0.27066,-0.94727 -0.68846,-2.4362 -0.0709,-0.25281 -0.19873,-0.68719 -0.28398,-0.96528 -0.0853,-0.2781 -0.21,-0.71248 -0.27722,-0.96529 -0.0672,-0.25282 -0.20809,-0.75927 -0.31305,-1.12546 -0.10495,-0.3662 -0.26884,-0.94537 -0.3642,-1.28705 -0.0954,-0.34169 -0.26415,-0.93152 -0.37508,-1.31074 -0.11094,-0.37922 -0.25495,-0.89634 -0.32002,-1.14915 -0.0651,-0.25282 -0.16018,-0.58377 -0.21137,-0.73546 -0.0977,-0.28966 -0.33331,-1.09585 -0.65814,-2.25234 -0.10651,-0.37922 -0.25175,-0.89633 -0.32276,-1.14915 -0.071,-0.25281 -0.21233,-0.74924 -0.31406,-1.10318 -0.10173,-0.35394 -0.2677,-0.93311 -0.36883,-1.28705 -0.34168,-1.1959 -0.57926,-2.02006 -0.74202,-2.5741 -0.0891,-0.30338 -0.23372,-0.8205 -0.32133,-1.14915 -0.24549,-0.92093 -0.51515,-1.84401 -0.66644,-2.28127 -0.0755,-0.21817 -0.19145,-0.63186 -0.2577,-0.91932 -0.0662,-0.28746 -0.20868,-0.81225 -0.3165,-1.16619 -0.10782,-0.35394 -0.2777,-0.93311 -0.37751,-1.28705 -0.17845,-0.6328 -0.25514,-0.90178 -0.63543,-2.22864 -0.10495,-0.3662 -0.27066,-0.94537 -0.36823,-1.28705 -0.0976,-0.34169 -0.24322,-0.84878 -0.32364,-1.12688 -0.14914,-0.51572 -0.39502,-1.40991 -0.68337,-2.4852 -0.0886,-0.33033 -0.20869,-0.68959 -0.2669,-0.79837 -0.0582,-0.10877 -0.10584,-0.28305 -0.10584,-0.38731 0,-0.10424 -0.078,-0.42757 -0.17321,-0.71851 -0.0953,-0.29094 -0.2638,-0.85993 -0.37452,-1.26443 -0.11071,-0.40451 -0.25844,-0.92162 -0.32828,-1.14916 -0.12931,-0.42126 -0.37865,-1.27987 -0.70745,-2.4362 -0.100647,-0.35393 -0.255907,-0.89174 -0.345027,-1.19511 -0.0891,-0.30338 -0.23333,-0.8205 -0.32046,-1.14915 -0.0871,-0.32866 -0.23769,-0.86646 -0.33458,-1.19512 -0.0969,-0.32866 -0.25851,-0.8768 -0.35916,-1.2181 -0.27281,-0.92508 -0.51483,-1.77453 -0.73994,-2.59708 -0.1107,-0.40451 -0.256356,-0.92162 -0.323671,-1.14916 -0.184192,-0.62259 -0.522886,-1.79992 -1.05788,-3.67728 -0.09366,-0.32866 -0.256063,-0.90783 -0.360902,-1.28705 -0.46795,-1.69266 -0.830806,-2.93993 -0.984605,-3.38445 -0.07548,-0.21817 -0.191445,-0.63186 -0.257697,-0.91932 -0.233595,-1.01356 -0.488866,-1.79249 -0.665144,-2.0296 -0.09804,-0.13187 -7.02078,-4.79962 -15.383862,-10.37276 -8.363081,-5.57315 -15.764089,-10.51114 -16.446685,-10.97331 -0.682596,-0.46217 -7.301238,-4.879493 -14.708092,-9.816283 -9.858884,-6.57109 -13.522709,-9.05966 -13.674902,-9.28834 -0.167184,-0.2512 -0.207825,-0.44022 -0.207548,-0.96528 4.13e-4,-0.78628 0.201034,-1.18431 0.714143,-1.41689 0.318854,-0.14453 2.440381,-0.15855 30.450498,-0.20131 l 30.107765,-0.046 0.321763,-0.2253 c 0.176969,-0.12391 0.48724,-0.3618 0.689491,-0.52863 0.406424,-0.33526 2.653798,-2.03459 3.447458,-2.60675 0.27809,-0.20049 0.857257,-0.63138 1.287047,-0.95755 0.42978,-0.32616 1.01588,-0.75933 1.30244,-0.96259 0.28657,-0.20326 0.70807,-0.52547 0.93666,-0.71603 0.2286,-0.19056 0.58861,-0.47058 0.80003,-0.62227 1.15768,-0.83062 1.57674,-1.13831 2.00334,-1.47091 0.46771,-0.36465 1.07631,-0.82514 2.21226,-1.67387 0.32432,-0.24231 0.69664,-0.52143 0.82739,-0.62026 1.11448,-0.84235 2.77692,-2.08587 3.13962,-2.34844 0.24445,-0.17697 0.58097,-0.42777 0.74783,-0.55733 0.78265,-0.60771 2.87487,-2.1884 3.27784,-2.47643 0.5671,-0.40535 1.14648,-0.84132 1.87729,-1.41265 0.31473,-0.24605 0.79977,-0.6095 1.07786,-0.80767 0.63957,-0.45577 1.69936,-1.24673 3.30956,-2.47007 0.32866,-0.24969 0.77898,-0.5893 1.00071,-0.75468 0.22174,-0.16538 0.70527,-0.52822 1.07451,-0.80631 0.36924,-0.2781 0.95315,-0.71227 1.29759,-0.96483 0.34443,-0.25255 1.05502,-0.79036 1.57908,-1.19511 0.52408,-0.40476 1.13053,-0.86003 1.34767,-1.01172 0.33327,-0.2328 2.15589,-1.59494 3.25037,-2.42917 0.66208,-0.50464 1.31432,-0.99054 1.91418,-1.42601 0.34373,-0.24953 0.83181,-0.62542 1.08462,-0.8353 0.25281,-0.20988 0.58377,-0.45798 0.73546,-0.55132 0.15169,-0.0933 0.37922,-0.26178 0.50562,-0.3743 0.12641,-0.11251 0.46231,-0.36354 0.74646,-0.55783 0.28414,-0.19429 0.72846,-0.51873 0.98738,-0.72098 0.2589,-0.20225 0.72971,-0.56228 1.04621,-0.80007 0.31651,-0.23779 0.8377,-0.6308 1.1582,-0.87336 0.32049,-0.24255 0.78121,-0.5858 1.0238,-0.76277 0.36674,-0.26753 1.29487,-0.96016 3.17395,-2.36859 0.15168,-0.1137 0.55071,-0.39349 0.88671,-0.62178 0.336,-0.22828 0.6654,-0.4807 0.73199,-0.56094 0.12436,-0.14983 1.60478,-1.28882 2.1778,-1.67553 0.17647,-0.11909 0.53992,-0.38799 0.80766,-0.59756 0.84957,-0.66496 1.42963,-1.10448 2.01946,-1.53017 0.69234,-0.49967 2.56912,-1.908 3.23544,-2.42788 0.2651,-0.20682 0.70607,-0.54153 0.97995,-0.74378 1.84529,-1.36268 3.1191,-2.31614 4.2373,-3.17165 0.49566,-0.37922 1.05352,-0.79292 1.23971,-0.91933 0.18617,-0.1264 0.50064,-0.36286 0.69882,-0.52547 0.19818,-0.1626 0.7947,-0.61496 1.32561,-1.00525 0.53091,-0.39028 1.10437,-0.81573 1.27437,-0.94544 0.16999,-0.12971 0.50493,-0.38063 0.74431,-0.5576 0.2394,-0.17696 0.92185,-0.69408 1.51659,-1.14915 0.59473,-0.45506 1.24868,-0.93992 1.45322,-1.07747 0.20453,-0.13754 0.4612,-0.334 0.57039,-0.43657 0.10918,-0.10257 0.47303,-0.38304 0.80856,-0.62327 0.69317,-0.4963 1.77601,-1.29801 2.61316,-1.93473 0.31285,-0.23795 0.85065,-0.63616 1.19512,-0.88492 0.34447,-0.24877 0.75041,-0.56562 0.9021,-0.70411 0.15169,-0.1385 0.62744,-0.48652 1.05722,-0.77338 l 0.78142,-0.52157 0.69177,0.0306 c 0.55599,0.0246 0.74545,0.0727 0.96529,0.24513 0.40157,0.31502 0.49646,0.54487 0.50009,1.21127 0.003,0.54331 -0.0692,0.77628 -0.78326,2.52813 -0.43258,1.06133 -0.90912,2.26064 -1.05897,2.66514 -0.14985,0.4045 -0.31174,0.81819 -0.35973,0.91932 -0.048,0.10112 -0.16556,0.39071 -0.26125,0.64352 -0.0957,0.25282 -0.73841,1.86623 -1.42832,3.58536 -0.6899,1.71913 -1.42518,3.56007 -1.63394,4.09098 -0.20877,0.5309 -0.45139,1.13076 -0.53916,1.33301 -0.0878,0.20225 -0.72652,1.79497 -1.41947,3.53939 -0.69294,1.74441 -1.31392,3.29576 -1.37995,3.44745 -0.066,0.15169 -0.85257,2.11674 -1.74785,4.36678 -0.89528,2.25003 -1.68159,4.21508 -1.74735,4.36677 -0.0658,0.15169 -0.68499,1.70304 -1.37607,3.44745 -0.69108,1.74442 -1.2941,3.2544 -1.34004,3.35553 -0.23262,0.5119 -0.87833,2.10419 -1.09979,2.71199 -0.13817,0.37922 -0.60185,1.55825 -1.03041,2.62007 -0.42855,1.06181 -0.92576,2.3029 -1.10492,2.75796 -0.60582,1.53873 -1.46225,3.67445 -1.67738,4.18291 -0.11766,0.2781 -0.44947,1.10549 -0.73735,1.83865 -0.9329,2.37582 -1.17411,2.98293 -1.29667,3.26358 -0.13245,0.30329 -1.94772,4.8431 -2.4629,6.15946 -0.1781,0.45506 -0.49533,1.24108 -0.70497,1.74671 -0.20964,0.50562 -0.50302,1.25027 -0.65196,1.65477 -0.14893,0.40451 -0.34629,0.90094 -0.43857,1.10319 -0.0923,0.20225 -0.40446,0.96758 -0.69376,1.70074 -1.04878,2.65795 -1.18288,2.99384 -1.33967,3.35553 -0.0877,0.20225 -0.31012,0.76073 -0.49433,1.24108 -0.18419,0.48034 -0.3913,0.99911 -0.46024,1.15282 -0.0689,0.1537 -0.48373,1.18794 -0.92177,2.29831 -0.43804,1.11036 -0.83456,2.101573 -0.88115,2.202703 -0.0466,0.10112 -0.16313,0.39071 -0.25896,0.64352 -0.14769,0.38964 -0.68219,1.72858 -3.06429,7.67634 -0.15188,0.37922 -0.52274,1.31003 -0.82413,2.06847 -0.30139,0.75844 -0.61238,1.52363 -0.69109,1.70043 -0.0787,0.17679 -0.24326,0.59049 -0.36568,0.91932 -0.12243,0.32883 -0.34427,0.88746 -0.49299,1.2414 -0.14873,0.35393 -0.46294,1.13995 -0.69824,1.74671 -0.2353,0.60675 -0.48256,1.22729 -0.54947,1.37898 -0.12159,0.27567 -1.26788,3.11634 -1.81776,4.50467 l -0.2913,0.73546 -0.046,70.64982 c -0.0428,65.76138 -0.0566,70.67326 -0.19961,70.98847 -0.086,0.18962 -0.27717,0.40252 -0.43437,0.48381 -0.29635,0.15325 -1.16682,0.24782 -1.59951,0.17379 z m -1.04514,-68.10193 c -0.13485,-0.20486 -0.38291,-0.53796 -0.55126,-0.74021 -0.2766,-0.33232 -1.79254,-2.33608 -2.60536,-3.44373 -0.93233,-1.27052 -1.44722,-1.96339 -1.98399,-2.66975 -0.32659,-0.42979 -0.72742,-0.9621 -0.89073,-1.18292 -0.16332,-0.22083 -0.4831,-0.63884 -0.71063,-0.92891 -0.22754,-0.29007 -0.59666,-0.78331 -0.82029,-1.09608 -0.23212,-0.32467 -0.46406,-0.55724 -0.54055,-0.54201 -0.15158,0.0302 -6.80849,13.25442 -6.8162,13.54069 -0.003,0.10112 0.0775,0.43208 0.17829,0.73545 0.10079,0.30338 0.26712,0.86187 0.36963,1.24109 0.19096,0.70641 0.30892,1.12644 0.63253,2.25233 0.10173,0.35394 0.26771,0.93311 0.36883,1.28705 0.10113,0.35394 0.26918,0.93311 0.37345,1.28705 0.28899,0.98089 0.63992,2.22665 0.82871,2.94183 0.0934,0.35394 0.21104,0.76763 0.26135,0.91932 0.15954,0.48106 0.60698,2.03012 0.98251,3.40149 0.1462,0.53387 0.58706,2.07153 1.06748,3.72325 0.0956,0.32866 0.31746,1.11467 0.49304,1.74671 0.17557,0.63203 0.3992,1.41805 0.49696,1.74671 0.43518,1.46303 0.56974,1.92769 0.74547,2.5741 0.19386,0.7131 0.31748,1.15253 0.63359,2.25233 0.10173,0.35394 0.2677,0.93311 0.36883,1.28705 0.34168,1.1959 0.57926,2.02006 0.74202,2.5741 0.0891,0.30338 0.23372,0.8205 0.32133,1.14915 0.24548,0.92093 0.51515,1.84401 0.66644,2.28127 0.0755,0.21817 0.19145,0.63186 0.2577,0.91932 0.0662,0.28746 0.20932,0.81225 0.31792,1.16619 0.1086,0.35394 0.2558,0.85037 0.32711,1.10318 0.2253,0.79878 0.50134,1.76981 0.68583,2.41251 0.0981,0.34169 0.26066,0.91084 0.36128,1.26478 0.10061,0.35394 0.24875,0.87105 0.32917,1.14915 0.15933,0.55098 0.41461,1.47823 0.64539,2.34427 0.0808,0.30337 0.20633,0.68195 0.27885,0.84128 0.0725,0.15933 0.13186,0.36618 0.13185,0.45966 -1e-5,0.0935 0.0824,0.41819 0.18323,0.72156 0.10078,0.30338 0.26803,0.86187 0.37166,1.24109 0.10363,0.37922 0.2472,0.89634 0.31902,1.14915 0.40665,1.43127 0.51481,1.81068 0.6945,2.4362 0.10893,0.37922 0.27301,0.93771 0.36462,1.24108 0.0916,0.30338 0.20094,0.69639 0.24294,0.87336 0.042,0.17697 0.0868,-12.19036 0.0995,-27.48295 l 0.0231,-27.80472 z m -16.60784,4.34479 c -0.0294,-0.0733 -0.0511,-0.0516 -0.0555,0.0555 -0.004,0.0969 0.0177,0.15121 0.0483,0.12066 0.0305,-0.0306 0.0338,-0.10984 0.007,-0.1762 z m -0.2007,-0.90209 c -0.0828,-0.37702 -0.15708,-0.30276 -0.0804,0.0804 0.0323,0.16152 0.0779,0.27451 0.10132,0.25109 0.0234,-0.0234 0.014,-0.17261 -0.0209,-0.33153 z m -0.23026,-0.9848 c -0.10017,-0.15622 -0.10277,-0.15602 -0.0525,0.004 0.0291,0.0926 0.0562,0.21673 0.0602,0.2758 0.005,0.0775 0.0198,0.0764 0.0525,-0.004 0.0249,-0.0613 -0.002,-0.1854 -0.0602,-0.27579 z m 3.93708,-10.38144 3.06264,-6.12613 -0.0614,-1.38932 c -0.0338,-0.76413 -0.1201,-1.59911 -0.19182,-1.85549 -0.0717,-0.25638 -0.16865,-0.98034 -0.2154,-1.60881 -0.0468,-0.62847 -0.12611,-1.32882 -0.17636,-1.55636 -0.0502,-0.22753 -0.12044,-0.86875 -0.15599,-1.42494 -0.0356,-0.55619 -0.10043,-1.10762 -0.14418,-1.2254 -0.0438,-0.11779 -0.12046,-0.78676 -0.17047,-1.4866 -0.05,-0.69984 -0.13495,-1.38821 -0.18875,-1.5297 -0.0538,-0.1415 -0.13181,-0.81704 -0.17337,-1.5012 -0.0416,-0.68417 -0.12439,-1.36699 -0.18406,-1.5174 -0.0597,-0.1504 -0.13093,-0.77094 -0.15836,-1.37898 -0.0274,-0.60804 -0.10731,-1.30837 -0.17751,-1.55627 -0.0702,-0.24791 -0.15238,-0.90982 -0.1826,-1.47091 -0.0302,-0.5611 -0.0922,-1.14428 -0.13772,-1.29597 -0.0455,-0.15169 -0.14443,-0.89634 -0.2198,-1.65478 -0.0754,-0.75844 -0.17676,-1.58583 -0.22531,-1.83864 -0.0486,-0.25281 -0.0907,-0.79439 -0.0937,-1.20349 -0.003,-0.40911 -0.0682,-0.94691 -0.14478,-1.19512 -0.0766,-0.24821 -0.1617,-0.92703 -0.18906,-1.50851 -0.0274,-0.58147 -0.11047,-1.29098 -0.18466,-1.57669 -0.0742,-0.2857 -0.17293,-1.03035 -0.21943,-1.65477 -0.0465,-0.62443 -0.12564,-1.32147 -0.17589,-1.549 -0.0503,-0.22754 -0.12045,-0.86876 -0.156,-1.42495 -0.0356,-0.55619 -0.0994,-1.10485 -0.14183,-1.21925 -0.0425,-0.1144 -0.12117,-0.77631 -0.1749,-1.47092 -0.0537,-0.6946 -0.14067,-1.39784 -0.19319,-1.56276 -0.0525,-0.16492 -0.12848,-0.84751 -0.16881,-1.51688 -0.0403,-0.66937 -0.12221,-1.34008 -0.18196,-1.49048 -0.0597,-0.15041 -0.13106,-0.77095 -0.15849,-1.37899 -0.0274,-0.60803 -0.10731,-1.30836 -0.17752,-1.55627 -0.0702,-0.24791 -0.15237,-0.90982 -0.18259,-1.47091 -0.0302,-0.5611 -0.0922,-1.14428 -0.13772,-1.29597 -0.0455,-0.15169 -0.14444,-0.89634 -0.21981,-1.65478 -0.0754,-0.75844 -0.17676,-1.58583 -0.2253,-1.83864 -0.0485,-0.25281 -0.0907,-0.77125 -0.0938,-1.1521 -0.003,-0.38084 -0.0672,-0.91864 -0.14267,-1.19512 -0.0755,-0.27647 -0.16246,-0.99911 -0.19334,-1.60586 -0.0309,-0.60675 -0.11514,-1.31003 -0.18727,-1.56285 -0.0721,-0.25281 -0.15373,-0.91472 -0.18136,-1.47091 -0.0276,-0.55619 -0.10838,-1.25947 -0.17944,-1.56285 -0.0711,-0.30337 -0.15409,-0.98597 -0.18451,-1.51688 -0.0304,-0.5309 -0.0928,-1.08383 -0.13854,-1.2287 -0.0458,-0.14489 -0.12685,-0.82749 -0.18017,-1.51688 -0.0533,-0.68941 -0.13991,-1.38839 -0.19243,-1.55331 -0.0525,-0.16491 -0.12849,-0.84751 -0.16882,-1.51688 -0.0403,-0.66936 -0.12221,-1.34008 -0.18195,-1.49048 -0.0597,-0.1504 -0.13106,-0.77095 -0.15849,-1.37898 -0.0274,-0.60804 -0.10796,-1.31058 -0.17897,-1.56118 -0.071,-0.25061 -0.15292,-0.9332 -0.18202,-1.51688 -0.0291,-0.58368 -0.0935,-1.18534 -0.14317,-1.33703 -0.0496,-0.15169 -0.14888,-0.87565 -0.22052,-1.60881 -0.0716,-0.73316 -0.16992,-1.53986 -0.2184,-1.79268 -0.0485,-0.25281 -0.0913,-0.74924 -0.0952,-1.10318 -0.004,-0.35394 -0.0707,-0.93311 -0.14846,-1.28705 -0.0777,-0.35394 -0.16105,-1.05722 -0.1851,-1.56285 -0.0241,-0.50563 -0.104,-1.20891 -0.17768,-1.56284 -0.0737,-0.35394 -0.15588,-0.792593 -0.18267,-0.974773 l -0.0487,-0.33125 -0.80277,-0.0533 c -0.44153,-0.0293 -1.04934,-0.11812 -1.3507,-0.19736 -0.30136,-0.0792 -0.73574,-0.14654 -0.96529,-0.14956 -0.22955,-0.003 -0.62421,-0.0448 -0.87702,-0.0928 -0.25281,-0.048 -0.94712,-0.14621 -1.54289,-0.21822 -0.59579,-0.072 -1.21633,-0.17154 -1.37899,-0.22117 -0.16267,-0.0496 -0.65741,-0.11658 -1.09942,-0.14876 -0.44202,-0.0322 -1.00051,-0.11414 -1.24109,-0.18212 -0.24058,-0.068 -0.80974,-0.14841 -1.2648,-0.17875 -0.45507,-0.0303 -1.03047,-0.11739 -1.27868,-0.19344 -0.24821,-0.0761 -0.68259,-0.14074 -0.96529,-0.14375 -0.2827,-0.003 -0.72084,-0.0455 -0.97366,-0.0944 -0.25281,-0.0489 -0.811297,-0.13245 -1.241077,-0.18565 -0.42978,-0.0532 -1.05032,-0.15243 -1.37898,-0.2205 -0.32866,-0.0681 -0.94178,-0.15064 -1.362497,-0.18349 -0.420715,-0.0328 -0.958518,-0.11437 -1.195117,-0.18116 -0.236598,-0.0668 -0.802505,-0.14541 -1.257569,-0.17471 -0.455064,-0.0293 -1.034236,-0.11204 -1.287049,-0.18387 -0.252814,-0.0718 -0.831986,-0.15541 -1.28705,-0.18576 -0.455064,-0.0303 -1.030469,-0.11738 -1.278677,-0.19343 -0.248208,-0.0761 -0.661903,-0.14074 -0.919321,-0.14375 -0.257418,-0.003 -0.67488,-0.0452 -0.927693,-0.0938 -0.252814,-0.0486 -0.950456,-0.14786 -1.550318,-0.22067 -0.59986,-0.0728 -1.220402,-0.17188 -1.378981,-0.22017 -0.158579,-0.0483 -0.649976,-0.11412 -1.091993,-0.14631 -0.442017,-0.0322 -1.000504,-0.11463 -1.241083,-0.1832 -0.240579,-0.0686 -0.907332,-0.15295 -1.481672,-0.18752 l -1.044257,-0.0628 -6.910954,3.45415 c -3.801025,1.89978 -6.992305,3.517113 -7.091736,3.594073 -0.177911,0.13771 -0.177133,0.14296 0.04905,0.33098 0.126407,0.10507 0.871057,0.61301 1.654778,1.12874 0.783721,0.51574 1.549056,1.02465 1.700744,1.13092 0.271172,0.18998 1.018022,0.68722 2.807918,1.86945 0.921491,0.60865 1.479105,0.98225 1.972552,1.32163 0.151687,0.10433 0.668806,0.44745 1.149151,0.7625 0.480345,0.31505 0.997463,0.6592 1.149151,0.76477 0.850887,0.59221 2.342167,1.58694 2.620065,1.74767 0.17697,0.10235 0.52861,0.33046 0.781423,0.50692 0.915053,0.63868 1.308823,0.90469 2.574099,1.73893 2.17684,1.43528 3.113974,2.0577 3.401488,2.25919 0.326835,0.22904 2.112258,1.41822 2.621991,1.74638 0.19635,0.1264 0.96918,0.64011 1.7174,1.14157 1.694747,1.13582 2.727279,1.82417 3.819584,2.54634 0.467705,0.30922 0.953796,0.64 1.080202,0.73506 0.126407,0.0951 0.374624,0.25136 0.551593,0.34732 0.46334,0.25125 0.605616,0.44636 0.778339,1.0674 0.08438,0.30337 0.236558,0.84117 0.338184,1.19511 0.101624,0.35394 0.242625,0.85037 0.313325,1.10319 0.0707,0.25281 0.21086,0.74924 0.31145,1.10318 0.1006,0.35394 0.2491,0.89174 0.33002,1.19512 0.0809,0.30338 0.20646,0.68195 0.27899,0.84128 0.0725,0.15934 0.13186,0.37636 0.13186,0.48228 0,0.10592 0.0786,0.43062 0.17461,0.72156 0.16219,0.49131 0.42391,1.38159 0.85124,2.89552 0.0962,0.34092 0.257687,0.90942 0.358817,1.26336 0.10113,0.35394 0.26141,0.92309 0.35618,1.26478 0.67933,2.4492 1.0017,3.55247 1.21139,4.14583 0.0954,0.26995 0.17345,0.56971 0.17345,0.66614 0,0.0964 0.078,0.41336 0.17322,0.70429 0.0953,0.29094 0.2638,0.85994 0.37451,1.26444 0.11071,0.4045 0.25844,0.92162 0.32828,1.14915 0.0699,0.22753 0.20964,0.70328 0.31066,1.05722 0.10102,0.35394 0.27319,0.95379 0.3826,1.33301 0.20752,0.71924 0.46965,1.65254 0.68425,2.4362 0.19814,0.72358 0.51297,1.80001 0.65876,2.25234 0.0733,0.22753 0.17265,0.59986 0.22069,0.82739 0.048,0.22753 0.14496,0.57917 0.21535,0.78142 0.0704,0.20225 0.21762,0.69869 0.32719,1.10319 0.10956,0.4045 0.25635,0.92162 0.3262,1.14915 0.21469,0.69941 1.02069,3.52346 1.3775,4.82643 0.0692,0.25282 0.2091,0.74925 0.31084,1.10319 0.10173,0.35394 0.2677,0.93311 0.36883,1.28705 0.10112,0.35394 0.27406,0.9538 0.3843,1.33302 0.4798,1.65053 0.5546,1.9091 0.67813,2.34426 0.0718,0.25282 0.22051,0.76994 0.33053,1.14916 0.27651,0.95311 0.53626,1.86362 0.74088,2.59708 0.0952,0.3413 0.25829,0.92047 0.3624,1.28705 0.10411,0.36658 0.24738,0.87335 0.31838,1.12616 0.33433,1.1904 0.53594,1.87128 0.66189,2.23531 0.0755,0.21816 0.1919,0.63186 0.2587,0.91932 0.0668,0.28746 0.18858,0.75019 0.27063,1.02829 0.0821,0.27809 0.2263,0.79521 0.32054,1.14915 0.0943,0.35394 0.21469,0.76763 0.26766,0.91932 0.053,0.15169 0.18346,0.58607 0.29,0.96529 0.10654,0.37922 0.2728,0.95839 0.36947,1.28704 0.0967,0.32866 0.26102,0.90783 0.36523,1.28705 0.29649,1.0789 0.43434,1.56218 0.62939,2.20637 0.0995,0.32866 0.20884,0.7348 0.24297,0.90254 0.0341,0.16773 0.11996,0.41595 0.19073,0.55159 0.0708,0.13564 0.12892,0.33953 0.12923,0.4531 2.8e-4,0.11356 0.0782,0.44452 0.17314,0.73546 0.0949,0.29093 0.24462,0.79787 0.33268,1.12653 0.0881,0.32866 0.23697,0.84578 0.33092,1.14915 0.094,0.30338 0.25741,0.86187 0.36323,1.24109 0.10583,0.37922 0.2715,0.95839 0.36817,1.28705 0.0967,0.32865 0.26102,0.90782 0.36523,1.28704 0.65615,2.38769 1.21475,4.22516 1.28514,4.2274 0.0255,9.2e-4 1.42448,-2.75527 3.10894,-6.12463 z m 14.29211,-69.39611 c 0.49476,-1.21351 0.97833,-2.39254 1.0746,-2.62007 0.0963,-0.22753 0.82223,-2.04779 1.61324,-4.04501 0.791,-1.99723 1.49383,-3.75543 1.56185,-3.90712 0.13167,-0.29366 0.62824,-1.53324 0.82861,-2.06847 0.0663,-0.17697 0.43963,-1.10778 0.82972,-2.06847 0.39009,-0.96069 0.85061,-2.11904 1.02336,-2.5741 0.17275,-0.45506 0.37411,-0.95775 0.44747,-1.11708 0.0734,-0.15933 0.13338,-0.31855 0.13338,-0.35383 0,-0.0353 0.06,-0.19451 0.13344,-0.35384 0.0734,-0.15933 0.31734,-0.74475 0.54211,-1.300943 0.22478,-0.55619 0.45242,-1.11468 0.50587,-1.24108 0.0534,-0.12641 0.61967,-1.55366 1.25825,-3.17167 0.63859,-1.618 1.215,-3.06593 1.28092,-3.21762 0.0659,-0.15169 0.68601,-1.70304 1.37796,-3.44745 0.69195,-1.74442 1.31221,-3.29577 1.37834,-3.44746 0.0661,-0.15169 0.85276,-2.11673 1.74804,-4.36677 0.89528,-2.25004 1.68103,-4.21509 1.74613,-4.36678 0.0651,-0.15169 0.68488,-1.70304 1.37731,-3.44745 0.69242,-1.74441 1.29647,-3.2544 1.34233,-3.35552 0.12335,-0.272 0.73661,-1.78888 0.87343,-2.16041 0.0652,-0.17697 0.40571,-1.03538 0.75675,-1.90759 l 0.63826,-1.58583 h -5.49967 -5.49969 l -0.46799,0.57458 c -0.50786,0.62353 -1.92124,2.27804 -2.8861,3.3785 -0.33249,0.37922 -0.94568,1.10259 -1.36263,1.60749 -0.41695,0.5049 -1.00793,1.1875 -1.31331,1.51688 -0.30536,0.32939 -0.67727,0.76436 -0.82646,0.96661 -0.14918,0.20225 -0.58326,0.71937 -0.96461,1.14915 -0.38136,0.42978 -0.89851,1.02964 -1.14923,1.33302 -0.25071,0.30337 -0.76838,0.90323 -1.15037,1.33301 -0.38199,0.42979 -0.8771,1.00896 -1.10025,1.28705 -0.22315,0.2781 -0.63733,0.75385 -0.9204,1.05722 -0.28307,0.30338 -0.75756,0.86187 -1.05442,1.24109 -0.29686,0.37922 -0.77261,0.9377 -1.05722,1.24108 -0.28461,0.30337 -0.75938,0.86186 -1.05504,1.24108 -0.29568,0.37922 -0.77383,0.93771 -1.06258,1.24109 -0.28875,0.30337 -0.7685,0.86186 -1.0661,1.24108 -0.29762,0.37922 -0.81141,0.97908 -1.14179,1.33301 -0.33038,0.35394 -0.76276,0.85038 -0.96086,1.10319 -0.1981,0.25281 -0.69507,0.83199 -1.10438,1.28705 -0.40931,0.45506 -0.88741,1.01354 -1.06245,1.24105 -0.17504,0.22751 -0.66989,0.81115 -1.09967,1.29698 -0.42978,0.48583 -1.01881,1.16844 -1.30895,1.51692 -0.58768,0.70584 -1.19497,1.41232 -2.30848,2.68552 -0.41214,0.47124 -0.99085,1.15384 -1.28602,1.51688 -0.29517,0.36303 -0.81609,0.97033 -1.15758,1.34956 -0.3415,0.37922 -0.64216,0.75154 -0.66813,0.82739 -0.026,0.0758 0.01,0.32406 0.0793,0.55159 0.0696,0.22753 0.15063,0.910133 0.18003,1.516883 0.0294,0.60675 0.11092,1.30602 0.18112,1.55393 0.0702,0.24791 0.15238,0.90982 0.1826,1.47091 0.0302,0.5611 0.0954,1.15329 0.14483,1.316 0.0494,0.1627 0.14314,0.91188 0.20823,1.66485 0.0651,0.75297 0.14532,1.41269 0.17829,1.46604 0.033,0.0534 0.0985,0.67028 0.14561,1.37095 0.0471,0.70066 0.13153,1.39456 0.18758,1.542 0.056,0.14743 0.12497,0.74637 0.15314,1.33097 0.0282,0.5846 0.11088,1.3038 0.18382,1.59822 0.0729,0.29443 0.15307,0.95635 0.17809,1.47092 0.025,0.51458 0.10667,1.22519 0.18144,1.57912 0.0748,0.35394 0.17551,1.11928 0.22386,1.70075 0.0484,0.58147 0.12841,1.32612 0.1779,1.65478 0.0495,0.32865 0.13209,1.01125 0.18355,1.51688 0.0515,0.50562 0.13359,1.12616 0.18252,1.37898 0.0489,0.25281 0.0914,0.81644 0.0944,1.25251 0.003,0.46913 0.0638,0.95709 0.14829,1.19512 0.0821,0.23112 0.1643,0.87161 0.19334,1.50545 0.0278,0.60675 0.10953,1.31003 0.18165,1.56284 0.0721,0.25282 0.15374,0.91473 0.18137,1.47092 0.0276,0.55619 0.1075,1.25947 0.17747,1.56284 0.07,0.30338 0.15286,0.98598 0.18419,1.51688 0.0313,0.53091 0.0956,1.08679 0.1428,1.23529 0.0472,0.14848 0.12625,0.83108 0.17564,1.51688 0.0494,0.68578 0.13365,1.39167 0.18725,1.56864 0.0536,0.17697 0.12024,0.79751 0.14809,1.37898 0.0279,0.58147 0.11,1.26407 0.18256,1.51688 0.0726,0.25282 0.15624,0.93541 0.18595,1.51688 0.0297,0.58147 0.1107,1.28207 0.17998,1.55688 0.0693,0.27482 0.15059,0.95741 0.18071,1.51688 0.0301,0.55947 0.0935,1.14515 0.14084,1.30149 0.0473,0.15635 0.14584,0.88032 0.2189,1.60882 0.0731,0.72849 0.17295,1.53138 0.222,1.7842 0.049,0.25281 0.0921,0.79061 0.0958,1.19511 0.004,0.40451 0.0697,0.96299 0.14677,1.24109 0.0771,0.27809 0.16353,0.98137 0.19204,1.56284 0.0285,0.58147 0.11093,1.26407 0.18317,1.51688 0.0722,0.25282 0.15394,0.91473 0.18157,1.47092 0.0276,0.55619 0.10782,1.25947 0.17819,1.56284 0.0704,0.30338 0.15334,1.00666 0.18436,1.56285 0.031,0.55619 0.096,1.13536 0.14442,1.28705 0.0484,0.15169 0.13017,0.83428 0.1817,1.51688 0.0515,0.68259 0.13604,1.37601 0.1878,1.54093 0.0518,0.16491 0.1271,0.84751 0.16744,1.51688 0.0403,0.66936 0.12102,1.33697 0.17932,1.48355 0.0583,0.14659 0.12849,0.72576 0.15599,1.28705 0.0275,0.56129 0.10994,1.27544 0.18318,1.587 0.0733,0.31155 0.17107,1.07689 0.21737,1.70074 0.0463,0.62385 0.12469,1.32044 0.17422,1.54797 0.0495,0.22753 0.11974,0.86876 0.15604,1.42495 0.0363,0.55619 0.10251,1.10921 0.14712,1.22893 0.0446,0.11972 0.11911,0.78255 0.16553,1.47295 0.0464,0.69041 0.13075,1.37719 0.1874,1.52619 0.0567,0.14899 0.13543,0.83442 0.17508,1.52318 0.0396,0.68876 0.0998,1.29705 0.13355,1.35175 0.0338,0.0547 0.10198,0.31307 0.1515,0.57416 0.0885,0.46679 0.41887,0.98082 1.5651,2.43537 0.19922,0.25281 0.6336,0.83199 0.9653,1.28705 0.33169,0.45506 0.8283,1.11698 1.10358,1.47091 0.27528,0.35394 0.7713,1.01585 1.10226,1.47092 0.33096,0.45506 0.77772,1.05492 0.99277,1.33301 0.21507,0.2781 0.61705,0.8085 0.8933,1.17867 l 0.50227,0.67304 0.046,-35.00969 0.046,-35.00967 z M 62.002788,101.11418 c -0.03055,-0.0305 -0.10984,-0.0338 -0.176203,-0.007 -0.07334,0.0293 -0.05155,0.0511 0.05554,0.0555 0.09691,0.004 0.151209,-0.0177 0.120661,-0.0483 z m 8.46912,-4.987853 c 3.708912,-1.85262 6.749566,-3.40852 6.75701,-3.45757 0.0074,-0.0491 -2.796158,-1.96239 -6.230225,-4.25186 l -6.243757,-4.16268 -12.188631,4.5e-4 -12.18863,4.6e-4 0.275796,0.23094 c 0.151688,0.12701 0.37922,0.28854 0.505627,0.35893 0.126406,0.0704 0.540101,0.34049 0.919321,0.60019 0.37922,0.25971 0.854968,0.57924 1.057219,0.71007 0.496659,0.32127 2.723759,1.80612 3.04883,2.03272 0.218705,0.15245 0.617985,0.41806 2.032871,1.35234 0.07657,0.0506 0.784771,0.523 1.573774,1.04986 0.789003,0.52686 1.82756,1.21776 2.307906,1.53532 0.480345,0.31757 0.997463,0.66515 1.149151,0.7724 0.151688,0.10725 0.670133,0.45059 1.152099,0.76298 0.481967,0.31239 0.978401,0.64189 1.103186,0.73222 0.124785,0.0903 1.302487,0.87929 2.617117,1.75322 2.663641,1.77073 3.578892,2.38028 4.170452,2.77747 0.834565,0.56035 1.071151,0.67828 1.253542,0.62482 0.101125,-0.0296 3.218429,-1.56966 6.927342,-3.42228 z m 45.256682,-0.54148 c 0.32687,-0.3413 0.90581,-1.01355 1.28654,-1.4939 0.38072,-0.48034 0.76761,-0.93537 0.85974,-1.01116 0.0921,-0.0758 0.5021,-0.55095 0.91102,-1.0559 0.40892,-0.50495 0.99334,-1.18759 1.2987,-1.51697 0.30537,-0.32938 0.67647,-0.76266 0.82466,-0.96284 0.1482,-0.20017 0.62438,-0.76036 1.05818,-1.24485 0.4338,-0.4845 0.91034,-1.04468 1.05897,-1.24486 0.14864,-0.20017 0.55649,-0.67422 0.90634,-1.05344 0.34985,-0.37922 0.86663,-0.97908 1.14842,-1.33302 0.28178,-0.35394 0.76288,-0.91243 1.06911,-1.24108 0.30624,-0.32866 0.87011,-0.99057 1.25306,-1.47092 0.38294,-0.48034 0.79143,-0.95609 0.90775,-1.05722 0.11632,-0.10112 0.45756,-0.49413 0.75831,-0.87335 0.30075,-0.37922 0.86439,-1.04113 1.25252,-1.47092 0.38813,-0.42978 0.84732,-0.96758 1.0204,-1.19511 0.17309,-0.22753 0.64964,-0.78602 1.05904,-1.24109 0.40938,-0.45506 0.99697,-1.13766 1.30576,-1.51688 0.3088,-0.37922 0.72144,-0.85496 0.917,-1.05722 0.19555,-0.20225 0.69049,-0.78142 1.09987,-1.28704 0.40938,-0.50563 0.83869,-1.00206 0.95403,-1.10319 0.11534,-0.10113 0.52209,-0.57687 0.90388,-1.05722 0.38181,-0.48034 0.94627,-1.14226 1.25436,-1.47091 0.3081,-0.32866 0.7326,-0.8268 0.94334,-1.10699 0.21073,-0.28018 0.68511,-0.83867 1.05417,-1.24108 0.36906,-0.40241 0.83397,-0.93851 1.03315,-1.19132 0.19916,-0.25281 0.63751,-0.76993 0.97409,-1.14915 0.33659,-0.37922 0.88685,-1.01996 1.22282,-1.42387 l 0.61084,-0.73438 v -6.87926 -6.87927 l -0.26098,0.18584 c -0.14354,0.10221 -0.31936,0.25666 -0.39071,0.34324 -0.0714,0.0866 -0.33658,0.29689 -0.58939,0.46738 -0.25282,0.17048 -0.81131,0.57725 -1.24109,0.90393 -0.42978,0.32667 -1.10307,0.83191 -1.4962,1.12274 -1.58124,1.16977 -2.13331,1.58172 -3.39363,2.53233 -0.72357,0.54576 -1.50175,1.13361 -1.72928,1.30634 -1.07478,0.81589 -4.21946,3.18164 -4.85269,3.65067 -0.39006,0.28892 -0.93673,0.69388 -1.21483,0.8999 -0.27809,0.20602 -0.85727,0.64144 -1.28705,0.96761 -0.42978,0.32616 -1.02964,0.76464 -1.33301,0.9744 -0.30338,0.20976 -0.67571,0.49547 -0.82739,0.63491 -0.15169,0.13943 -0.52793,0.43366 -0.83608,0.65383 -0.53078,0.37923 -2.12871,1.57139 -3.43877,2.56556 -0.32865,0.24941 -1.10959,0.83644 -1.73542,1.30452 -0.62583,0.46807 -1.78417,1.3368 -2.5741,1.93051 -0.78993,0.59372 -1.66376,1.24499 -1.94186,1.44728 -0.27809,0.20229 -0.82216,0.60596 -1.20904,0.89706 -0.38688,0.29109 -0.96605,0.72674 -1.28705,0.96811 -0.321,0.24136 -0.79048,0.60265 -1.0433,0.80285 -0.25281,0.20021 -0.83198,0.636 -1.28705,0.96843 -0.45506,0.33242 -1.09629,0.80888 -1.42494,1.05879 -0.32866,0.24991 -0.77992,0.58883 -1.00281,0.75314 -0.90423,0.66663 -3.93981,2.9405 -4.69699,3.5184 -0.22754,0.17365 -0.59463,0.45109 -0.81578,0.61652 -0.65481,0.48984 -1.59341,1.18967 -2.22495,1.65894 -0.32483,0.24136 -0.797437,0.60297 -1.050247,0.80356 -0.92884,0.73698 -2.583165,1.92989 -2.895864,2.08816 -0.302021,0.15287 -1.108617,0.16568 -13.146291,0.20883 l -12.82453,0.046 1.195118,0.80516 c 0.657314,0.44284 1.298541,0.87522 1.424947,0.96085 0.126407,0.0856 0.830514,0.55276 1.564683,1.03807 0.734169,0.48532 1.458134,0.96858 1.608812,1.07392 0.150678,0.10534 0.641367,0.43423 1.09042,0.73086 0.449053,0.29663 0.87866,0.5807 0.954682,0.63127 2.020349,1.34375 2.758486,1.8056 2.954337,1.84855 0.13137,0.0288 0.425017,0.10709 0.652549,0.17397 0.227532,0.0669 0.765335,0.14349 1.195117,0.17023 0.429783,0.0267 1.027989,0.11315 1.329348,0.192 0.301358,0.0789 0.756422,0.14518 1.011253,0.14738 0.25483,0.002 0.649491,0.0446 0.877023,0.0943 0.227532,0.0497 0.901148,0.14852 1.496925,0.2197 0.595777,0.0712 1.216319,0.16992 1.378982,0.21943 0.162663,0.0495 0.677161,0.11571 1.143329,0.14712 0.466168,0.0314 1.00397,0.11152 1.195117,0.17804 0.191147,0.0665 0.740549,0.14652 1.220895,0.1778 0.480345,0.0313 1.080202,0.11596 1.333015,0.18817 0.252814,0.0722 0.837558,0.15549 1.299432,0.18507 0.461874,0.0296 0.941014,0.0923 1.064753,0.13932 0.123739,0.047 0.687454,0.13177 1.252698,0.18828 0.56525,0.0565 1.12034,0.13733 1.23355,0.1796 0.11321,0.0423 0.59251,0.10654 1.065097,0.14283 0.4726,0.0363 1.05177,0.12033 1.28705,0.18675 0.23528,0.0664 0.80011,0.14634 1.25517,0.17759 0.45507,0.0312 1.01355,0.11462 1.24108,0.18526 0.22754,0.0706 0.76534,0.15032 1.19512,0.17707 0.42978,0.0267 1.02799,0.11314 1.32935,0.192 0.30136,0.0789 0.75642,0.14584 1.01125,0.14885 0.25483,0.003 0.67018,0.0448 0.923,0.0929 0.25282,0.0481 0.93541,0.14741 1.51688,0.22068 0.58147,0.0733 1.2227,0.17446 1.42495,0.22487 0.20225,0.0504 0.71937,0.11795 1.14915,0.15009 0.42978,0.0321 0.92622,0.11173 1.10319,0.17685 0.17697,0.0651 0.59421,0.12334 0.92722,0.12938 l 0.60546,0.011 z m 44.97489,-32.93468 c 0.0415,-0.22638 0.0322,-0.28088 -0.0314,-0.18386 -0.0497,0.0758 -0.091,0.23787 -0.0918,0.36006 -0.002,0.29507 0.0504,0.22028 0.12316,-0.1762 z m -1.51058,-1.73356 c 0.0503,-0.0939 0.34394,-0.80752 0.65264,-1.58583 0.30871,-0.77831 0.65756,-1.64265 0.77522,-1.92074 0.11767,-0.27809 0.44948,-1.10548 0.73735,-1.83864 0.88996,-2.26646 1.17181,-2.97414 1.33645,-3.35552 0.0873,-0.20225 0.72568,-1.79498 1.41863,-3.53939 0.69294,-1.74441 1.31424,-3.29577 1.38067,-3.44745 0.2103,-0.48015 1.15257,-2.88652 1.15257,-2.94339 0,-0.03 0.0886,-0.24873 0.19689,-0.48613 0.21396,-0.46903 1.62206,-3.95117 1.95897,-4.84437 0.2384,-0.63209 2.76095,-6.93795 2.94204,-7.35457 0.0659,-0.15169 0.22982,-0.56538 0.36418,-0.91932 0.13435,-0.35394 0.30485,-0.77938 0.37889,-0.94543 0.14132,-0.31693 0.17514,-0.57145 0.0759,-0.57145 -0.0515,0 -0.9254,0.63546 -1.734,1.26094 -1.15092,0.8903 -2.63207,2.00155 -5.33206,4.00047 -0.809,0.59894 -1.69844,1.27104 -1.97654,1.49356 -0.27809,0.22252 -0.69625,0.54154 -0.92923,0.70894 -0.93079,0.66876 -1.33122,0.96575 -1.83582,1.36157 -0.29006,0.22753 -0.92937,0.70328 -1.42068,1.05722 -0.49131,0.35394 -1.07541,0.79741 -1.29799,0.98549 -0.22259,0.18808 -0.60013,0.47589 -0.83899,0.63957 -0.23887,0.16367 -0.65005,0.46485 -0.91373,0.66928 -0.26369,0.20443 -0.73944,0.56606 -1.05722,0.80362 -0.31778,0.23756 -0.826,0.62135 -1.12938,0.85286 -0.30338,0.2315 -0.77912,0.58498 -1.05722,0.78551 -0.56651,0.40849 -1.66697,1.2312 -2.40637,1.79902 -0.26922,0.20674 -0.92314,0.69875 -1.45317,1.09334 -0.53002,0.39459 -1.09885,0.82529 -1.26407,0.95711 l -0.30037,0.23968 -1e-5,7.60738 v 7.60738 h 5.74252 c 5.50099,0 5.74636,-0.007 5.83389,-0.17071 z m -12.6796,-16.71512 c 0.12641,-0.12304 -0.0598,-0.031 -0.41369,0.20443 -0.79129,0.52644 -0.87906,0.61449 -0.2758,0.27667 0.25281,-0.14157 0.56308,-0.35807 0.68949,-0.4811 z m -59.388148,19.99932 c -0.227532,-0.0446 -0.973467,-0.11976 -1.657633,-0.16698 -0.684167,-0.0472 -1.366762,-0.13262 -1.51688,-0.18977 -0.150118,-0.0572 -0.479788,-0.14123 -0.732602,-0.18684 -1.51213,-0.27279 -4.013301,-1.2305 -5.653824,-2.16488 -1.960422,-1.11659 -3.243729,-2.08206 -4.690457,-3.52879 -2.320326,-2.32032 -4.088152,-5.18695 -5.10362,-8.27581 -0.428366,-1.303 -0.488795,-1.51801 -0.555097,-1.97501 -0.03656,-0.25197 -0.124488,-0.597 -0.195404,-0.76673 -0.07092,-0.16972 -0.167268,-0.87369 -0.214116,-1.56437 -0.04685,-0.69068 -0.125008,-1.46263 -0.173689,-1.71544 -0.04868,-0.25281 -0.08851,-0.74925 -0.08851,-1.10319 0,-0.35393 0.03983,-0.85037 0.08851,-1.10318 0.04868,-0.25281 0.126841,-1.02476 0.173689,-1.71544 0.04685,-0.69068 0.1432,-1.39465 0.214116,-1.56438 0.07092,-0.16972 0.158847,-0.51475 0.195404,-0.76672 0.0663,-0.457 0.126731,-0.67201 0.555097,-1.97501 1.007255,-3.06387 2.801032,-5.9751 5.101534,-8.27957 2.260627,-2.26453 5.243753,-4.10238 8.277895,-5.09986 1.303005,-0.42837 1.518009,-0.4888 1.975013,-0.5551 0.251973,-0.0366 0.597,-0.12449 0.766725,-0.1954 0.169725,-0.0709 0.873693,-0.16727 1.564373,-0.21412 0.690679,-0.0469 1.462629,-0.12501 1.715442,-0.17369 0.588816,-0.11338 1.617555,-0.11338 2.206371,0 0.252813,0.0487 1.024762,0.12684 1.715442,0.17369 0.690679,0.0469 1.394647,0.1432 1.564373,0.21412 0.169725,0.0709 0.514751,0.15884 0.766724,0.1954 0.457005,0.0663 0.672008,0.12673 1.975014,0.5551 6.259878,2.05795 11.321478,7.11954 13.379438,13.37943 0.42836,1.303 0.48879,1.51801 0.55509,1.97501 0.0366,0.25197 0.12494,0.59806 0.1964,0.76909 0.0715,0.17102 0.16672,0.85431 0.21169,1.51841 0.045,0.66409 0.13201,1.58657 0.19343,2.04994 0.0878,0.66258 0.0876,1.01596 -9.2e-4,1.65478 -0.0619,0.44676 -0.14896,1.35564 -0.19343,2.01973 -0.0445,0.6641 -0.13933,1.34738 -0.21079,1.51841 -0.0715,0.17103 -0.15983,0.51712 -0.19639,0.76909 -0.0663,0.457 -0.12673,0.67201 -0.5551,1.97501 -1.44302,4.38936 -4.44903,8.34453 -8.26199,10.87073 -1.111167,0.73618 -2.419217,1.44749 -3.447287,1.87461 -1.363871,0.56663 -2.9221,1.07684 -3.738627,1.22414 -0.252813,0.0456 -0.582483,0.12968 -0.732601,0.18684 -0.150118,0.0572 -0.832714,0.14194 -1.51688,0.18841 -0.684166,0.0465 -1.450786,0.12433 -1.703599,0.17301 -0.55995,0.10782 -1.690662,0.10547 -2.252337,-0.005 z m 3.033759,-3.11453 c 2.516446,-0.18213 5.452595,-1.19524 7.814232,-2.69628 3.643907,-2.31604 6.459107,-5.76763 7.789007,-9.54974 0.54671,-1.55478 0.65003,-1.90292 0.74968,-2.52601 0.0501,-0.31327 0.14219,-0.66491 0.20463,-0.78143 0.0829,-0.15461 0.11353,-0.95703 0.11353,-2.96982 0,-2.01278 -0.0307,-2.8152 -0.11353,-2.96981 -0.0624,-0.11652 -0.15453,-0.46816 -0.20463,-0.78143 -0.16458,-1.02907 -0.84721,-2.96222 -1.54832,-4.38475 -1.77475,-3.60088 -4.79617,-6.65006 -8.424878,-8.50229 -1.28721,-0.65703 -3.479752,-1.43398 -4.513087,-1.59925 -0.313262,-0.0501 -0.664903,-0.14254 -0.781423,-0.20543 -0.30213,-0.16306 -5.637507,-0.16306 -5.939638,0 -0.11652,0.0629 -0.46816,0.15465 -0.781423,0.20392 -0.313261,0.0493 -0.735045,0.14474 -0.937295,0.21214 -0.202251,0.0674 -0.615945,0.19824 -0.919321,0.29072 -5.242871,1.59837 -10.039636,6.22512 -11.879991,11.45893 -0.546707,1.55478 -0.650029,1.90292 -0.749683,2.52601 -0.0501,0.31327 -0.142546,0.66491 -0.205433,0.78143 -0.18049,0.33442 -0.151574,5.61769 0.03311,6.04954 0.07568,0.17697 0.165428,0.54179 0.199436,0.81071 0.121827,0.96335 0.946049,3.2226 1.677036,4.59686 1.782099,3.35037 4.715238,6.29315 7.993295,8.01957 1.488399,0.78388 3.60685,1.5557 4.787847,1.74437 0.336578,0.0538 0.656612,0.12687 0.711187,0.16244 0.242783,0.15825 3.310379,0.22651 4.925662,0.1096 z"
       id="path4569"
       inkscape:connector-curvature="0" />
  </g>
</svg>
