<?xml version="1.0" encoding="UTF-8" standalone="no"?>
<!-- Created with Inkscape (http://www.inkscape.org/) -->

<svg
   xmlns:dc="http://purl.org/dc/elements/1.1/"
   xmlns:cc="http://creativecommons.org/ns#"
   xmlns:rdf="http://www.w3.org/1999/02/22-rdf-syntax-ns#"
   xmlns:svg="http://www.w3.org/2000/svg"
   xmlns="http://www.w3.org/2000/svg"
   xmlns:sodipodi="http://sodipodi.sourceforge.net/DTD/sodipodi-0.dtd"
   xmlns:inkscape="http://www.inkscape.org/namespaces/inkscape"
   width="210mm"
   height="297mm"
   viewBox="0 0 210 297"
   version="1.1"
   id="svg8"
   inkscape:version="0.92.1 r15371"
   sodipodi:docname="Maps.svg">
  <defs
     id="defs2" />
  <sodipodi:namedview
     id="base"
     pagecolor="#ffffff"
     bordercolor="#666666"
     borderopacity="1.0"
     inkscape:pageopacity="0.0"
     inkscape:pageshadow="2"
     inkscape:zoom="0.49497475"
     inkscape:cx="-278.11575"
     inkscape:cy="661.33983"
     inkscape:document-units="mm"
     inkscape:current-layer="layer1"
     showgrid="false"
     inkscape:window-width="1920"
     inkscape:window-height="1017"
     inkscape:window-x="-8"
     inkscape:window-y="-8"
     inkscape:window-maximized="1" />
  <metadata
     id="metadata5">
    <rdf:RDF>
      <cc:Work
         rdf:about="">
        <dc:format>image/svg+xml</dc:format>
        <dc:type
           rdf:resource="http://purl.org/dc/dcmitype/StillImage" />
        <dc:title></dc:title>
      </cc:Work>
    </rdf:RDF>
  </metadata>
  <g
     inkscape:label="Layer 1"
     inkscape:groupmode="layer"
     id="layer1">
    <path
       style="fill:#000000;stroke-width:0.26458335"
       d="M 35.094924,149.07571 V 89.147594 h 73.421876 73.42187 v 59.928116 59.92812 H 108.5168 35.094924 Z m 142.874996,0 V 93.116344 H 108.5168 39.063674 v 55.959366 55.95937 h 69.453126 69.45312 z m -40.09272,50.69366 c 0.54616,-0.699 0.62565,-0.94931 0.35581,-1.12042 -0.1911,-0.12119 -0.22,-0.22217 -0.0642,-0.2244 0.15579,-0.002 0.918,-0.79615 1.69381,-1.76428 0.77581,-0.96813 1.24366,-1.6652 1.03967,-1.54904 -0.204,0.11616 0.14081,-0.23698 0.76623,-0.78475 0.62542,-0.54778 1.07489,-1.0582 0.99881,-1.13428 -0.0761,-0.0761 -0.37547,0.14643 -0.66531,0.49446 -0.28984,0.34804 -0.53094,0.52275 -0.53578,0.38824 -0.005,-0.13451 -0.30279,0.0316 -0.66211,0.36919 -0.35932,0.33756 -0.61691,0.68574 -0.57243,0.77372 0.0445,0.088 -0.3783,0.56291 -0.93951,1.05537 -0.66332,0.58206 -0.95616,0.72801 -0.83685,0.41708 0.13842,-0.3607 0.0259,-0.32063 -0.4577,0.16295 -0.35269,0.35269 -0.64125,0.76031 -0.64125,0.90583 0,0.14552 -0.11906,0.26641 -0.26458,0.26864 -0.14552,0.002 -0.43181,0.10992 -0.63619,0.23931 -0.46123,0.292 -0.40464,0.19389 1.60935,-2.79059 0.84721,-1.25546 1.54038,-2.3749 1.54038,-2.48765 0,-0.20359 0.92939,-1.5156 2.58157,-3.64435 0.47397,-0.6107 0.95033,-1.22942 1.05857,-1.37494 0.10824,-0.14552 0.52491,-0.66162 0.92593,-1.14688 0.40103,-0.48527 0.65996,-0.99423 0.57541,-1.13104 -0.0846,-0.1368 -0.0352,-0.21602 0.10957,-0.17603 0.29086,0.0803 4.91212,-5.33045 4.71825,-5.52432 -0.33756,-0.33756 -7.97005,-4.56225 -9.46942,-5.24145 -1.61826,-0.73307 -1.94204,-1.05057 -2.54966,-2.50025 -0.094,-0.22434 -0.044,-0.3044 0.12501,-0.19996 0.30869,0.19079 0.68711,-0.52911 0.4661,-0.88671 -0.0756,-0.12233 0.002,-0.30858 0.17232,-0.41388 0.20652,-0.12763 0.23843,-0.076 0.0957,0.15489 -0.14751,0.23868 -0.11119,0.28277 0.11684,0.14184 0.19249,-0.11897 0.28289,-0.5316 0.21611,-0.98655 -0.0939,-0.63975 -0.0315,-0.76028 0.34275,-0.6624 0.37234,0.0974 0.4497,-0.0468 0.41549,-0.77412 -0.0231,-0.49157 0.0479,-0.89377 0.15781,-0.89377 0.23103,0 5.82869,2.70893 6.02704,2.91672 0.0728,0.0762 0.9062,0.54544 1.85208,1.0427 0.94589,0.49726 2.71145,1.4767 3.92347,2.17652 1.21202,0.69982 2.26832,1.2724 2.34732,1.2724 0.079,0 1.89409,-1.70054 4.03352,-3.77897 3.75776,-3.6506 6.43413,-5.88718 8.03611,-6.7156 0.4223,-0.21838 0.68816,-0.26816 0.5908,-0.11062 -0.0974,0.15754 -0.0212,0.30457 0.16931,0.32674 1.49689,0.17417 2.13521,0.48371 1.80873,0.87709 -0.21147,0.25481 -0.17516,0.38598 0.14036,0.50705 0.2341,0.0898 0.3769,0.30953 0.31734,0.48822 -0.0596,0.17868 0.11486,0.56441 0.38761,0.85716 0.31816,0.34152 0.44211,0.74658 0.34583,1.13019 -0.0825,0.32885 -0.0287,0.5979 0.11956,0.5979 0.58186,0 0.21518,0.69003 -0.921,1.73315 -0.65484,0.60121 -1.19063,1.04297 -1.19063,0.98168 0,-0.11814 -1.53854,1.30204 -5.34255,4.93152 l -2.32925,2.22238 0.9306,1.13569 c 0.51184,0.62462 0.89855,1.24745 0.85935,1.38406 -0.0392,0.13661 0.49428,0.74896 1.1855,1.36077 0.69122,0.61182 1.25677,1.24409 1.25677,1.40506 0,0.16096 -0.16886,0.0617 -0.37524,-0.22051 -0.20638,-0.28224 -0.45,-0.43842 -0.54137,-0.34705 -0.0914,0.0914 0.34526,0.56743 0.97028,1.05792 0.62503,0.49048 1.40965,1.21285 1.74362,1.60525 0.33396,0.39241 0.8291,0.7839 1.10031,0.86997 0.2712,0.0861 0.56636,0.34741 0.65589,0.58073 0.14127,0.36814 0.10077,0.37664 -0.30629,0.0643 -0.50703,-0.38909 3.21502,3.64119 3.86746,4.18772 0.33599,0.28145 0.33801,0.32964 0.0135,0.32344 -0.20972,-0.004 -0.67896,-0.41744 -1.04276,-0.91876 -0.3638,-0.50131 -0.73091,-0.91475 -0.8158,-0.91875 -0.40995,-0.0193 -0.10049,0.99888 0.49952,1.6436 0.37101,0.39866 0.61009,0.78933 0.53127,0.86815 -0.0788,0.0788 -0.34078,-0.15806 -0.58213,-0.5264 -0.24135,-0.36835 -0.58489,-0.6679 -0.76344,-0.66567 -0.20607,0.003 -0.22644,0.0751 -0.0558,0.19844 0.49526,0.3581 1.71553,1.95148 1.71553,2.24007 0,0.15691 -0.25859,0.0585 -0.57464,-0.21874 -0.75294,-0.66041 -0.41003,-0.0555 0.83923,1.48035 1.59688,1.96326 1.52922,2.09384 -0.14588,0.28155 -2.9586,-3.20092 -7.4424,-7.5498 -6.46878,-6.27413 0.99813,1.30778 0.31391,1.13617 -1.14175,-0.28637 -2.34543,-2.29206 -6.02409,-5.14625 -6.43138,-4.98996 -0.19104,0.0733 -0.42909,0.001 -0.52899,-0.16061 -0.1188,-0.19221 -0.0531,-0.22109 0.18996,-0.0835 0.20438,0.11574 0.15845,-0.0147 -0.10209,-0.28985 -0.46083,-0.48669 -0.54351,-0.42825 -3.04271,2.15064 -2.92753,3.02089 -4.17323,4.42817 -4.10595,4.63858 0.0256,0.0802 -0.19607,0.29732 -0.49268,0.48255 -0.44305,0.2767 -0.50257,0.27429 -0.33352,-0.0135 0.11318,-0.19265 -0.59988,0.51294 -1.58458,1.56796 -0.9847,1.05503 -1.94323,1.91823 -2.13007,1.91823 -0.18684,0 -0.48684,0.17729 -0.66666,0.39397 -0.17983,0.21667 -0.42024,0.33631 -0.53425,0.26585 -0.114,-0.0705 -0.86813,0.5857 -1.67585,1.45812 -0.80771,0.87243 -1.54496,1.58623 -1.63834,1.58623 -0.15728,0 0.72489,-1.19402 1.56385,-2.11667 0.50669,-0.55724 3.10148,-3.75162 3.44924,-4.2463 0.15848,-0.22541 0.007,-0.10635 -0.3375,0.26459 -0.3441,0.37093 -1.83238,1.9723 -3.30729,3.5586 -1.47491,1.5863 -3.0799,3.31271 -3.56664,3.83646 l -0.88497,0.95228 z m 7.58272,-5.78064 c 0.32911,-0.41965 0.31975,-0.429 -0.0999,-0.0999 -0.44073,0.34565 -0.58089,0.56292 -0.36313,0.56292 0.0549,0 0.2633,-0.20836 0.46302,-0.46302 z m -1.88583,-1.78594 c 0.34178,-0.3638 0.56188,-0.66146 0.48912,-0.66146 -0.0728,0 -0.41193,0.29766 -0.7537,0.66146 -0.34178,0.3638 -0.56188,0.66146 -0.48912,0.66146 0.0728,0 0.41193,-0.29766 0.7537,-0.66146 z m 3.20875,0.19844 c 0.32911,-0.41965 0.31975,-0.429 -0.0999,-0.0999 -0.44072,0.34565 -0.58088,0.56292 -0.36312,0.56292 0.0549,0 0.2633,-0.20836 0.46302,-0.46302 z m 21.13292,-1.78594 c -0.64268,-0.65484 -1.21873,-1.19062 -1.2801,-1.19062 -0.22356,0 1.94898,2.33213 2.19508,2.35633 0.13944,0.0137 -0.2723,-0.51086 -0.91498,-1.16571 z m 1.21745,0.26191 c -0.0323,-0.21976 -0.19206,-0.53297 -0.35513,-0.69604 -0.34319,-0.3432 -0.32837,0.2062 0.0206,0.76486 0.27712,0.4436 0.40582,0.41712 0.3345,-0.0688 z m -6.61278,-7.88338 c -0.42081,-0.31934 -1.37166,-1.07836 -2.11298,-1.68673 -0.74133,-0.60836 -1.40561,-1.04837 -1.47618,-0.9778 -0.0706,0.0706 0.005,0.21114 0.16706,0.31237 0.16245,0.10123 0.86316,0.6603 1.55712,1.24238 1.80584,1.51472 2.06934,1.70371 2.36552,1.69668 0.14552,-0.003 -0.0797,-0.26756 -0.50054,-0.5869 z m -0.95467,-1.44301 c 0,-0.11051 -0.26789,-0.36551 -0.59531,-0.56665 -0.5932,-0.3644 -0.59353,-0.36369 -0.0913,0.20095 0.53924,0.60623 0.6866,0.68472 0.6866,0.3657 z m -19.10036,15.12814 c 0.3416,-0.65792 1.10869,-1.33791 1.10869,-0.9828 0,0.13797 -0.31381,0.5395 -0.69737,0.89229 -0.62228,0.57238 -0.66657,0.58212 -0.41132,0.0905 z m -89.378809,-1.92889 c 0,-0.58866 1.24071,-1.01552 1.678687,-0.57754 0.354776,0.35478 0.01025,0.68499 -0.951083,0.91157 -0.59971,0.14135 -0.727604,0.0826 -0.727604,-0.33403 z m -0.833438,-2.94414 c -0.02183,-0.29105 -0.05159,-0.67312 -0.06615,-0.84905 -0.01455,-0.17594 0.354603,-0.39782 0.820343,-0.49307 0.779379,-0.1594 0.860629,-0.11024 1.02047,0.61751 0.192243,0.87528 -0.143038,1.24294 -1.139667,1.24972 -0.407242,0.003 -0.60785,-0.16312 -0.635,-0.52511 z m -0.754062,-3.38709 c 0,-0.29611 -0.06793,-0.71541 -0.150959,-0.93178 -0.208603,-0.54361 1.440262,-0.92215 1.767459,-0.40577 0.342526,0.54058 0.280746,1.54914 -0.09515,1.55325 -0.181901,0.002 -0.59862,0.0754 -0.926042,0.16315 -0.47459,0.12719 -0.595312,0.0504 -0.595312,-0.37885 z m 113.348819,-3.55823 -0.50403,-0.59531 0.59532,0.50403 c 0.32742,0.27721 0.59531,0.54511 0.59531,0.59531 0,0.21174 -0.21294,0.0554 -0.6866,-0.50403 z M 50.657685,184.28723 c -0.09616,-0.82367 -0.03556,-0.91811 0.681122,-1.06144 0.858232,-0.17165 1.20784,0.13772 1.214566,1.07479 0.0026,0.36365 -0.207732,0.62121 -0.591261,0.72399 -1.037349,0.278 -1.196386,0.1881 -1.304427,-0.73734 z m -0.617958,-3.61273 c -0.208892,-0.95108 -0.233269,-0.9183 0.833522,-1.12098 0.764305,-0.14522 0.842384,-0.0925 0.995295,0.67206 0.181314,0.90657 -0.113184,1.25074 -1.076035,1.25754 -0.427344,0.003 -0.619961,-0.20389 -0.752782,-0.80862 z m -0.480914,-3.06789 c -0.09701,-0.097 -0.176389,-0.51373 -0.176389,-0.92604 0,-0.67557 0.08855,-0.74965 0.896012,-0.74965 0.793668,0 0.909343,0.0908 1.01273,0.79525 0.06419,0.43739 0.05786,0.85411 -0.01407,0.92604 -0.19369,0.19369 -1.514035,0.15865 -1.718286,-0.0456 z m -0.593132,-4.1742 c -0.08923,-0.35553 -0.08447,-0.77225 0.01057,-0.92604 0.244691,-0.39592 1.728293,-0.35216 1.732698,0.0511 0.002,0.1819 0.0754,0.59862 0.163151,0.92604 0.143805,0.53661 0.06567,0.59531 -0.792322,0.59531 -0.788753,0 -0.979661,-0.11076 -1.114101,-0.64642 z m -0.377007,-3.98379 c 0,-0.88194 0.0441,-0.92604 0.926042,-0.92604 0.881944,0 0.926041,0.0441 0.926041,0.92604 0,0.88195 -0.0441,0.92605 -0.926041,0.92605 -0.881945,0 -0.926042,-0.0441 -0.926042,-0.92605 z m -0.264583,-3.70416 c 0,-0.88195 0.0441,-0.92604 0.926041,-0.92604 0.881945,0 0.926042,0.0441 0.926042,0.92604 0,0.88194 -0.0441,0.92604 -0.926042,0.92604 -0.881944,0 -0.926041,-0.0441 -0.926041,-0.92604 z m 104.485059,-1.63309 c -0.62192,-0.84805 -2.00157,-2.69681 -3.06588,-4.10836 l -1.93512,-2.56644 1.59247,-0.3133 1.59247,-0.3133 -0.1607,-0.85664 c -0.14531,-0.77453 -0.0842,-0.8833 0.63732,-1.13484 0.75023,-0.26153 0.81482,-0.23004 1.07825,0.52564 0.15411,0.4421 0.20719,0.92196 0.11795,1.06636 -0.0954,0.1543 0.0423,0.20239 0.3339,0.11665 0.94892,-0.27902 3.62917,-0.70245 3.74066,-0.59096 0.0973,0.0973 -2.53873,9.39829 -2.72935,9.6304 -0.0392,0.0477 -0.58005,-0.60715 -1.20197,-1.45521 z M 48.059507,162.04029 c 0,-0.88194 0.0441,-0.92604 0.926042,-0.92604 0.881944,0 0.926042,0.0441 0.926042,0.92604 0,0.88195 -0.0441,0.92604 -0.926042,0.92604 -0.881944,0 -0.926042,-0.0441 -0.926042,-0.92604 z m 0,-3.70416 c 0,-0.88195 0.0441,-0.92605 0.926042,-0.92605 0.881944,0 0.926042,0.0441 0.926042,0.92605 0,0.88194 -0.0441,0.92604 -0.926042,0.92604 -0.881944,0 -0.926042,-0.0441 -0.926042,-0.92604 z m 0,-3.28566 c 0,-0.95653 0.309086,-1.34455 1.071026,-1.34455 0.894762,0 1.152308,0.33273 0.933217,1.20566 -0.13318,0.53063 -0.327214,0.64642 -1.083242,0.64642 -0.731522,0 -0.921001,-0.10442 -0.921001,-0.50753 z M 149.6491,152.75251 c -0.36242,-0.95325 -0.33404,-1.04193 0.44753,-1.39804 0.78947,-0.3597 1.03674,-0.20624 1.28435,0.7971 0.14907,0.60405 0.0639,0.73208 -0.65314,0.98205 -0.75932,0.2647 -0.84466,0.23455 -1.07874,-0.38111 z m -101.325009,-1.4062 c 0,-0.95654 0.309085,-1.34456 1.071026,-1.34456 0.903706,0 1.039385,0.17802 0.85817,1.12599 -0.118773,0.62132 -0.267978,0.72609 -1.033999,0.72609 -0.706086,0 -0.895197,-0.10721 -0.895197,-0.50752 z m 99.666789,-1.9297 c -0.25551,-0.4452 -0.43108,-0.82936 -0.39015,-0.85369 0.0409,-0.0243 0.39099,-0.24198 0.77792,-0.48365 0.67939,-0.42434 0.71796,-0.41737 1.12448,0.20306 0.56788,0.86669 0.53886,1.00652 -0.31337,1.50994 -0.72286,0.427 -0.74158,0.42114 -1.19888,-0.37566 z m -98.410018,-1.20893 c -0.634389,-0.0812 -0.727605,-0.20955 -0.727605,-1.00163 0,-0.71917 0.105755,-0.90847 0.507528,-0.90847 0.956533,0 1.344556,0.30909 1.344556,1.07103 0,0.86735 -0.132359,0.96611 -1.124479,0.83907 z m 96.188278,-1.42014 c -0.52641,-0.52641 -0.53827,-0.61431 -0.16065,-1.19062 0.49452,-0.75474 0.91007,-0.78636 1.51723,-0.11546 0.4318,0.47713 0.43242,0.54681 0.0106,1.19063 -0.5435,0.82949 -0.64458,0.83802 -1.36715,0.11545 z m -22.0388,-1.416 c 0,-0.88194 0.0441,-0.92604 0.92604,-0.92604 0.88195,0 0.92604,0.0441 0.92604,0.92604 0,0.88195 -0.0441,0.92604 -0.92604,0.92604 -0.88194,0 -0.92604,-0.0441 -0.92604,-0.92604 z m 3.79987,0.21299 c -0.23597,-0.94016 0.0696,-1.40361 0.92538,-1.40361 0.68291,0 0.78541,0.10541 0.8786,0.9036 0.0995,0.85235 0.0557,0.90942 -0.77286,1.00615 -0.73834,0.0862 -0.90271,0.006 -1.03112,-0.50614 z m -7.50404,-0.0591 c 0,-0.95653 0.30909,-1.34455 1.07103,-1.34455 0.90371,0 1.03939,0.17802 0.85817,1.12598 -0.11877,0.62132 -0.26798,0.7261 -1.034,0.7261 -0.70609,0 -0.8952,-0.10722 -0.8952,-0.50753 z m 11.2731,-0.17557 c -0.37515,-0.97762 -0.17639,-1.37383 0.74301,-1.48116 0.84948,-0.0992 0.90963,-0.0538 1.00432,0.75722 0.0658,0.56374 -0.0256,0.91118 -0.26379,1.00258 -0.68143,0.2615 -1.32247,0.14109 -1.48354,-0.27864 z m -14.53879,-0.0332 c -0.35223,-0.0908 -0.44504,-0.28427 -0.33434,-0.69691 0.0843,-0.31415 0.15485,-0.72947 0.15684,-0.92294 0.003,-0.25797 0.23287,-0.30263 0.86351,-0.16753 1.09746,0.23512 1.0744,0.20411 0.86405,1.16182 -0.17796,0.81023 -0.43369,0.91343 -1.55006,0.62556 z m 26.28444,0.013 c -0.21828,-0.0728 -0.54139,-0.17707 -0.71801,-0.23171 -0.24399,-0.0755 -0.25148,-0.29919 -0.0312,-0.93116 0.2606,-0.74756 0.37156,-0.81549 1.0956,-0.67068 1.03935,0.20787 1.02909,0.19038 0.68723,1.17104 -0.29883,0.85722 -0.35052,0.89035 -1.03365,0.66251 z m -8.02569,-0.26683 c -0.097,-0.097 -0.17639,-0.51373 -0.17639,-0.92604 0,-0.68036 0.0856,-0.74965 0.92604,-0.74965 0.88195,0 0.92604,0.0441 0.92604,0.92604 0,0.84044 -0.0693,0.92604 -0.74965,0.92604 -0.41231,0 -0.82903,-0.0794 -0.92604,-0.17639 z m 3.52778,-1.01424 c 0,-0.88194 0.0441,-0.92604 0.92604,-0.92604 0.88194,0 0.92604,0.0441 0.92604,0.92604 0,0.88195 -0.0441,0.92605 -0.92604,0.92605 -0.88194,0 -0.92604,-0.0441 -0.92604,-0.92605 z m -88.701565,0.48184 c -0.304559,-0.0814 -0.463021,-0.38343 -0.463021,-0.8825 0,-0.91481 0.281532,-1.12678 1.192813,-0.89806 0.582407,0.14617 0.675628,0.29934 0.60748,0.99812 -0.08103,0.83091 -0.418098,1.02813 -1.337272,0.78244 z m 63.647965,-0.21451 c -0.80949,-0.34604 -0.8314,-0.39488 -0.53244,-1.18691 0.26557,-0.70356 0.41033,-0.80171 0.97652,-0.66209 0.99267,0.24478 1.12858,0.49879 0.74675,1.39572 -0.33842,0.79494 -0.36655,0.80564 -1.19083,0.45328 z m -3.67913,-1.53347 c -0.51234,-0.29686 -0.52724,-0.3873 -0.19553,-1.18654 0.35637,-0.85864 0.36507,-0.86209 1.14992,-0.45622 0.90668,0.46886 0.88871,0.42023 0.48378,1.30896 -0.34001,0.74624 -0.61586,0.81027 -1.43817,0.3338 z m -3.08342,-1.66331 c -0.85712,-0.465 -0.88852,-0.64965 -0.24548,-1.44378 0.46739,-0.5772 0.50359,-0.58134 1.18395,-0.13555 0.67278,0.44082 0.68539,0.49162 0.30483,1.22755 -0.21835,0.42223 -0.4237,0.76293 -0.45634,0.7571 -0.0327,-0.006 -0.38678,-0.18822 -0.78696,-0.40532 z m -56.320281,-0.28871 c -0.329559,-0.088 -0.387485,-0.30753 -0.253736,-0.96149 0.09532,-0.46609 0.317263,-0.83552 0.493199,-0.82097 0.175935,0.0145 0.558007,0.0443 0.849049,0.0661 0.537641,0.0403 0.687922,0.64103 0.368567,1.47325 -0.156045,0.40665 -0.579937,0.47736 -1.457079,0.24306 z m 53.001401,-1.82694 c -0.57378,-0.40189 -0.57824,-0.43879 -0.14232,-1.17673 0.44276,-0.74954 0.46206,-0.75473 1.19494,-0.32181 0.8672,0.51227 0.87654,0.54943 0.33303,1.3254 -0.4899,0.69943 -0.61241,0.71474 -1.38565,0.17314 z m -51.874397,-1.72025 c -0.416366,-0.16676 -0.569922,-0.38774 -0.463021,-0.66632 0.08797,-0.22925 0.159945,-0.60055 0.159945,-0.82512 0,-0.31762 0.1867,-0.37097 0.840604,-0.24019 1.079225,0.21585 1.095177,0.23755 0.883343,1.20202 -0.18783,0.85519 -0.405472,0.93631 -1.420871,0.52961 z m 48.885917,-0.47652 c -0.592048,-0.47941 -0.596948,-0.5169 -0.1555,-1.19062 0.53956,-0.82349 0.65071,-0.83619 1.45456,-0.16619 0.60217,0.5019 0.60474,0.5247 0.13229,1.17351 -0.58322,0.80095 -0.65693,0.81039 -1.43135,0.1833 z m -2.859889,-2.3858 c -0.631121,-0.48525 -0.631814,-0.49139 -0.132292,-1.17643 0.601044,-0.82427 0.597292,-0.82374 1.410915,-0.19837 0.624658,0.48013 0.630488,0.51605 0.192338,1.18475 -0.534167,0.81523 -0.640021,0.82891 -1.470961,0.19005 z m -44.783759,-0.64983 c -0.673978,-0.29951 -0.68859,-0.34841 -0.346916,-1.16101 0.337223,-0.80202 0.400918,-0.83292 1.166635,-0.56599 0.445465,0.15529 0.809937,0.31246 0.809937,0.34927 0,0.32116 -0.619477,1.72859 -0.753488,1.7119 -0.09491,-0.0118 -0.48918,-0.16219 -0.876168,-0.33417 z m 42.110906,-1.8933 -0.634981,-0.67591 0.661458,-0.66145 0.661459,-0.66146 0.634981,0.67591 0.634982,0.6759 -0.661459,0.66146 -0.661458,0.66146 z m -40.613542,-1.50227 c -0.291042,-0.16256 -0.574959,-0.33371 -0.630926,-0.38035 -0.121914,-0.10158 0.51359,-1.68925 0.676164,-1.68925 0.06233,0 0.465772,0.18225 0.896531,0.405 0.766571,0.39641 0.774575,0.42169 0.376941,1.19063 -0.448473,0.86725 -0.549538,0.90358 -1.31871,0.47397 z m 37.967709,-1.14356 -0.634982,-0.67591 0.661459,-0.66146 0.661458,-0.66146 0.634982,0.67591 0.634981,0.67591 -0.661458,0.66146 -0.661459,0.66146 z m -36.290497,-2.18762 c -0.627254,-0.41369 -0.664366,-0.51859 -0.340273,-0.96181 0.200073,-0.27362 0.404599,-0.61998 0.454504,-0.76969 0.05357,-0.1607 0.431126,-0.0711 0.921692,0.21865 0.822394,0.4858 0.826421,0.49853 0.390927,1.23577 -0.517649,0.8763 -0.518149,0.8764 -1.42685,0.27708 z m 33.689301,-0.67528 -0.57677,-0.61395 0.66017,-0.6202 c 0.640953,-0.60214 0.67565,-0.60618 1.192106,-0.13879 0.659123,0.59649 0.671185,0.9851 0.04809,1.549 -0.61708,0.55845 -0.635908,0.55594 -1.323592,-0.17606 z m -31.576023,-2.37226 -0.707427,-0.58567 0.579522,-0.72065 0.579522,-0.72064 0.726792,0.58835 0.726792,0.58835 -0.598887,0.71797 -0.598887,0.71796 z m 29.002829,-0.46906 -0.755849,-0.78893 0.660207,-0.66021 0.66021,-0.66021 0.870079,0.8977 0.87008,0.89769 -0.774441,0.55145 -0.774438,0.55145 z m -26.544128,-2.25335 -0.572132,-0.72735 0.587814,-0.6257 0.587817,-0.62571 0.668684,0.66869 0.668684,0.66868 -0.684369,0.68437 -0.684366,0.68436 z m 23.724511,-0.17479 -0.717963,-0.59889 0.585671,-0.70743 0.585674,-0.70743 0.720643,0.57953 0.72064,0.57952 -0.588349,0.72679 -0.588351,0.72679 z m -20.918647,-2.28968 c -0.441814,-0.74793 -0.437454,-0.77411 0.198229,-1.19062 0.881393,-0.57752 1.059981,-0.54185 1.437692,0.28714 0.290206,0.63693 0.259443,0.76336 -0.288258,1.18474 -0.801261,0.61646 -0.819634,0.61262 -1.347663,-0.28126 z m 17.848477,0.28126 c -0.5477,-0.42138 -0.578464,-0.54781 -0.288258,-1.18474 0.377349,-0.82819 0.55658,-0.86447 1.43319,-0.29009 0.613656,0.40208 0.625903,0.46076 0.248481,1.19062 -0.462024,0.89345 -0.572294,0.91595 -1.393413,0.28421 z M 66.60118,117.13946 c -0.156983,-0.45032 -0.285422,-0.84887 -0.285422,-0.88568 0,-0.0957 1.666033,-0.66393 1.709123,-0.58291 0.392489,0.73797 0.604121,1.53335 0.435687,1.63744 -0.119068,0.0736 -0.52192,0.24993 -0.895228,0.39186 -0.614924,0.23379 -0.705575,0.18107 -0.96416,-0.56071 z m 11.272504,0.53432 c -0.545473,-0.19881 -0.696984,-0.38822 -0.565295,-0.70671 0.09895,-0.23931 0.237169,-0.63336 0.30716,-0.87566 0.107317,-0.37152 0.258085,-0.39646 0.96217,-0.15916 0.459203,0.15477 0.865217,0.30394 0.902253,0.3315 0.135041,0.10049 -0.521052,1.7228 -0.688536,1.70253 -0.0949,-0.0115 -0.507894,-0.14311 -0.917752,-0.2925 z m -7.725624,-1.55762 c -0.208892,-0.95107 -0.233268,-0.91829 0.833524,-1.12098 0.764305,-0.14521 0.842383,-0.0925 0.995294,0.67207 0.181314,0.90657 -0.113183,1.25074 -1.076034,1.25753 -0.427344,0.003 -0.619964,-0.20389 -0.752784,-0.80862 z m 3.715842,0.56026 c -0.0858,-0.13883 -0.07992,-0.55555 0.01307,-0.92604 0.140965,-0.56165 0.323379,-0.67363 1.097288,-0.67363 0.833477,0 0.911934,0.0608 0.768681,0.59531 -0.08775,0.32742 -0.161166,0.74414 -0.163153,0.92604 -0.0042,0.38712 -1.483313,0.45462 -1.715884,0.0783 z"
       id="path4621"
       inkscape:connector-curvature="0" />
  </g>
</svg>
