<?xml version="1.0" encoding="UTF-8" standalone="no"?>
<svg
   xmlns:dc="http://purl.org/dc/elements/1.1/"
   xmlns:cc="http://creativecommons.org/ns#"
   xmlns:rdf="http://www.w3.org/1999/02/22-rdf-syntax-ns#"
   xmlns:svg="http://www.w3.org/2000/svg"
   xmlns="http://www.w3.org/2000/svg"
   id="svg8"
   version="1.1"
   viewBox="0 0 210 297"
   height="297mm"
   width="210mm">
  <defs
     id="defs2" />
  <metadata
     id="metadata5">
    <rdf:RDF>
      <cc:Work
         rdf:about="">
        <dc:format>image/svg+xml</dc:format>
        <dc:type
           rdf:resource="http://purl.org/dc/dcmitype/StillImage" />
        <dc:title></dc:title>
      </cc:Work>
    </rdf:RDF>
  </metadata>
  <g
     id="layer1">
    <path
       id="path4710"
       d="m 100.69281,209.03237 c -9.367255,-1.2888 -17.556019,-5.36123 -24.001253,-11.9363 -5.670388,-5.78461 -9.197541,-12.4174 -10.957465,-20.60544 -0.862594,-4.01322 -0.863734,-11.587 -0.0023,-15.61042 2.461067,-11.49534 9.123666,-20.95194 19.019919,-26.99603 l 1.918229,-1.17154 0.0016,-14.95424 c 0.0011,-9.48536 0.101569,-15.31464 0.275175,-15.93973 0.376015,-1.35392 1.727994,-3.044663 3.214661,-4.020153 l 1.242242,-0.81518 0.01442,-2.55934 c 0.01381,-2.45128 0.0462,-2.59112 0.767326,-3.31224 1.600301,-1.6003 5.440863,-2.30261 12.608556,-2.30567 5.99588,-0.003 9.1337,0.40364 11.42011,1.47838 1.7092,0.80342 1.94134,1.27848 1.94134,3.97282 v 2.31558 l 0.8599,0.43662 c 1.48117,0.75208 3.07726,2.20712 3.83497,3.496073 l 0.72909,1.24028 0.0743,15.41197 c 0.0544,11.27862 0.15486,15.41198 0.37467,15.41198 0.40861,0 3.92682,2.19552 6.03332,3.76506 0.94589,0.70477 2.7174,2.25931 3.93669,3.45453 5.90624,5.78962 9.62875,12.65074 11.44285,21.09083 0.50135,2.33252 0.59712,3.58445 0.59712,7.80521 0,5.42713 -0.41842,8.25939 -1.85671,12.56771 -4.6812,14.02235 -16.10935,24.17916 -30.65641,27.246 -3.01275,0.63515 -9.98557,0.9249 -12.83229,0.53324 z m 10.04574,-2.78653 c 8.14995,-1.13673 15.31362,-4.64484 21.26553,-10.41392 6.09243,-5.90529 9.96612,-13.55109 11.14393,-21.99555 1.86596,-13.37838 -3.73301,-27.03653 -14.40937,-35.15032 -1.96099,-1.49031 -4.54085,-3.20584 -4.82103,-3.20584 -0.0795,0 -0.19128,1.16453 -0.24845,2.58785 -0.0895,2.22873 -0.20367,2.75803 -0.82265,3.81424 -4.44568,7.58598 -25.168855,8.91985 -33.463153,2.1539 -1.860323,-1.51753 -2.535944,-2.95999 -2.666624,-5.69326 -0.06136,-1.28346 -0.172249,-2.33356 -0.246415,-2.33356 -0.285112,0 -2.131597,1.22349 -4.03376,2.6728 -7.778023,5.92628 -13.034024,14.99147 -14.409372,24.85229 -0.515593,3.69665 -0.515593,6.60525 0,10.3019 2.894503,20.75271 22.05366,35.29072 42.711364,32.40947 z m 8.24662,-7.72865 c 0.16785,-0.25466 1.48461,-1.47505 2.92612,-2.71198 5.76581,-4.94748 10.98339,-11.9751 13.63455,-18.36452 0.91743,-2.21107 1.00494,-2.3327 1.08382,-1.50646 0.25737,2.69568 -1.25146,8.70443 -2.92873,11.66338 -2.81483,4.96577 -7.33668,8.83863 -12.42007,10.6375 -2.46424,0.87203 -2.70394,0.90148 -2.29569,0.28208 z M 73.993008,182.01702 c -0.462817,-1.03506 -1.210315,-3.26748 -1.661112,-4.96093 -0.765531,-2.87578 -0.821086,-3.39334 -0.841727,-7.8415 -0.02278,-4.90877 0.163399,-6.27215 1.409091,-10.31875 1.863278,-6.05283 6.16898,-12.15014 11.493693,-16.27624 0.467865,-0.36255 0.488339,-0.34453 0.307962,0.27102 -0.10627,0.36266 -1.02964,2.43462 -2.051931,4.60436 -5.266373,11.17748 -7.652242,21.01357 -7.723156,31.83982 -0.01646,2.51017 -0.04372,4.564 -0.06062,4.56406 -0.01691,6e-5 -0.40939,-0.84677 -0.872204,-1.88184 z M 109.3986,145.52835 c 5.40059,-0.701 9.79217,-2.6109 11.1595,-4.85327 0.48288,-0.7919 0.50569,-1.54084 0.50664,-16.63227 l 0.001,-15.80303 -1.24543,0.78982 c -1.60008,1.01475 -4.66523,2.18553 -7.35353,2.80882 -3.0337,0.70336 -11.51839,0.70336 -14.552089,0 -2.688307,-0.62329 -5.753449,-1.79407 -7.353535,-2.80882 l -1.245492,-0.78982 v 15.7718 c 0,15.35049 0.01423,15.79485 0.533273,16.63465 2.253088,3.64558 11.426643,5.93649 19.549603,4.88212 z m 4.96227,-7.73304 c -0.0827,-0.61846 -0.41179,-3.55183 -0.73132,-6.51859 l -0.58096,-5.39411 1.01203,-5.78453 c 0.95647,-5.46695 1.04384,-5.78454 1.59136,-5.78454 0.66642,0 0.56411,-0.53202 1.47586,7.67423 l 0.60278,5.42527 -0.73372,5.29036 c -0.40354,2.90969 -0.79226,5.49871 -0.86382,5.75337 -0.0845,0.30071 -0.39157,0.46302 -0.87597,0.46302 -0.67753,0 -0.75966,-0.10304 -0.89624,-1.12448 z m -3.54554,-28.38673 c 4.36214,-0.76303 7.56596,-2.14697 9.15195,-3.95332 1.55351,-1.76934 1.44284,-3.00414 -0.43285,-4.8297 l -1.24683,-1.213503 -0.13229,2.781423 c -0.14702,3.09111 -0.27099,3.35662 -1.93964,4.15411 -2.19547,1.04926 -5.44815,1.46705 -11.42182,1.46705 -5.993184,0 -9.124726,-0.40765 -11.420119,-1.48661 -1.691616,-0.79515 -1.94134,-1.29005 -1.94134,-3.84731 0,-1.27446 -0.109924,-2.19009 -0.262925,-2.19009 -0.442137,0 -1.853742,2.15575 -1.853742,2.83096 0,2.64262 4.082648,5.18478 10.086272,6.28048 2.727704,0.49783 8.585484,0.50117 11.413334,0.007 z m -0.91782,-4.36911 c 1.41309,-0.15303 3.25387,-0.46638 4.09061,-0.69632 l 1.52136,-0.41809 v -4.330753 c 0,-2.38192 -0.0468,-4.33076 -0.10399,-4.33076 -0.0572,0 -1.03947,0.20807 -2.18282,0.46239 -3.00104,0.66753 -13.856594,0.66753 -16.857642,0 -1.143352,-0.25432 -2.128567,-0.46239 -2.189369,-0.46239 -0.0608,0 -0.07783,1.93476 -0.03784,4.29947 l 0.0727,4.299483 1.337569,0.44407 c 2.720278,0.90311 9.554522,1.25217 14.349422,0.7329 z m 1.9078,-4.21967 v -2.910423 h 0.74318 c 0.40875,0 0.9743,-0.17481 1.25677,-0.38846 0.28248,-0.21365 0.60289,-0.39225 0.71203,-0.39688 0.10914,-0.005 0.19844,1.30735 0.19844,2.915513 v 2.92391 l -0.91755,0.38338 c -1.93794,0.80972 -1.99287,0.74006 -1.99287,-2.52704 z m 1.13668,-7.753073 c 0.84345,-0.21187 1.59581,-0.44748 1.6719,-0.52357 0.21848,-0.21848 -2.41954,-0.71538 -5.45344,-1.02721 -3.29332,-0.3385 -9.08934,-0.13245 -12.013832,0.42709 -1.148175,0.21969 -2.141699,0.45353 -2.207826,0.51966 -0.171786,0.17179 1.843966,0.68494 3.740024,0.95211 2.492644,0.35123 12.446264,0.10832 14.263174,-0.34808 z"
       style="fill:#000000;stroke-width:0.26458335" />
  </g>
</svg>
