<?xml version="1.0" encoding="UTF-8" standalone="no"?>
<svg
   xmlns:dc="http://purl.org/dc/elements/1.1/"
   xmlns:cc="http://creativecommons.org/ns#"
   xmlns:rdf="http://www.w3.org/1999/02/22-rdf-syntax-ns#"
   xmlns:svg="http://www.w3.org/2000/svg"
   xmlns="http://www.w3.org/2000/svg"
   id="svg8"
   version="1.1"
   viewBox="0 0 210 297"
   height="297mm"
   width="210mm">
  <defs
     id="defs2" />
  <metadata
     id="metadata5">
    <rdf:RDF>
      <cc:Work
         rdf:about="">
        <dc:format>image/svg+xml</dc:format>
        <dc:type
           rdf:resource="http://purl.org/dc/dcmitype/StillImage" />
        <dc:title></dc:title>
      </cc:Work>
    </rdf:RDF>
  </metadata>
  <g
     id="layer1">
    <path
       id="path4496"
       d="m 138.6883,203.51358 c -1.60834,-0.70027 -2.72263,-2.93701 -2.3781,-4.77356 0.22844,-1.21765 1.74597,-2.92636 2.95264,-3.3246 2.16723,-0.71525 4.75719,0.78564 5.38483,3.12053 0.93481,3.47756 -2.60807,6.43679 -5.95937,4.97763 z m -76.834061,-2.54121 c -1.208667,-0.28332 -2.781123,-1.97268 -3.019653,-3.24416 -0.417148,-2.22359 -0.06358,-2.72948 6.605792,-9.45173 l 6.184394,-6.23344 -5.963716,-5.94388 c -3.280044,-3.26913 -6.145678,-6.28724 -6.368076,-6.70692 -0.58533,-1.10455 -0.501336,-3.16961 0.173322,-4.26123 1.153219,-1.86595 3.830872,-2.63422 5.710522,-1.63847 0.425426,0.22537 3.448246,3.09343 6.717379,6.37348 l 5.943878,5.96371 6.232043,-6.18301 c 5.69604,-5.65123 6.334006,-6.20382 7.41758,-6.42492 2.264614,-0.46209 3.930103,0.31482 4.97083,2.31877 0.7015,1.35076 0.62948,2.72924 -0.21283,4.07333 -0.27779,0.44329 -3.128907,3.42324 -6.335816,6.62212 l -5.830739,5.81615 6.191139,6.22239 c 5.103375,5.12914 6.247876,6.41547 6.514096,7.32135 0.43549,1.4819 0.14147,2.81104 -0.87891,3.97319 -1.422155,1.61975 -3.33923,2.09678 -5.031309,1.25196 -0.465717,-0.23252 -3.62363,-3.17932 -7.017589,-6.54844 l -6.170832,-6.12567 -5.867709,5.98402 c -3.22724,3.2912 -6.165366,6.16511 -6.529168,6.38644 -0.876054,0.533 -2.298115,0.72137 -3.434628,0.45496 z m 59.394001,-14.92022 c -2.69318,-1.20212 -3.49528,-4.75301 -1.54293,-6.83047 1.48108,-1.576 0.79311,-1.52577 20.89777,-1.52577 18.18678,0 18.46188,0.008 19.5914,0.55458 1.39473,0.67518 2.46105,2.32641 2.46105,3.81105 0,1.48463 -1.06632,3.13586 -2.46105,3.81104 -1.13029,0.54717 -1.39302,0.55444 -19.64905,0.54423 -14.8702,-0.008 -18.6593,-0.0799 -19.29719,-0.36466 z m 17.72216,-17.4562 c -1.11637,-0.48644 -2.44952,-2.08993 -2.65698,-3.19577 -0.4887,-2.60498 1.6202,-5.16677 4.25336,-5.16677 1.16442,0 2.86926,0.89255 3.47727,1.8205 2.30765,3.52191 -1.30734,8.18312 -5.07365,6.54204 z m -63.362648,-26.1079 c -0.363728,-0.15295 -0.940586,-0.53883 -1.281909,-0.85751 -1.338331,-1.24955 -1.40271,-1.63492 -1.560989,-9.34416 l -0.148698,-7.24255 h -6.914875 c -6.649389,0 -6.959602,-0.0229 -8.079925,-0.59531 -1.724598,-0.88123 -2.254364,-1.75625 -2.254364,-3.72357 0,-1.98555 0.707787,-3.16011 2.355075,-3.90822 0.967685,-0.43947 1.828237,-0.49315 7.988802,-0.49833 l 6.904294,-0.006 0.17331,-3.61371 c 0.09532,-1.98754 0.174096,-5.29153 0.175054,-7.34219 0.0019,-4.22194 0.194934,-4.78101 2.034484,-5.894608 2.006547,-1.21468 4.73438,-0.51497 5.870081,1.505738 0.532463,0.94739 0.560358,1.35415 0.560358,8.1709 v 7.17387 h 7.087687 c 6.824649,0 7.13142,0.0221 8.266097,0.59531 1.61263,0.81467 2.3733,2.0231 2.3733,3.77031 0,1.74721 -0.76067,2.95563 -2.3733,3.77031 -1.133015,0.57238 -1.446348,0.59531 -8.133805,0.59531 h -6.955396 l -0.0063,6.54844 c -0.0035,3.60164 -0.114631,7.01547 -0.247018,7.58629 -0.468971,2.02205 -1.952315,3.35321 -3.894148,3.49462 -0.702064,0.0511 -1.574075,-0.0322 -1.937803,-0.18513 z m 45.745758,-14.3375 c -0.49446,-0.3286 -1.17437,-1.13227 -1.51091,-1.78594 -0.55427,-1.07659 -0.60409,-1.47691 -0.52916,-4.25192 0.0785,-2.90748 0.12153,-3.11432 0.84519,-4.06297 1.3929,-1.82594 0.49482,-1.75532 21.31486,-1.67617 18.56691,0.0706 18.77002,0.0771 19.50912,0.62482 0.41078,0.30443 1.02336,0.95927 1.36129,1.45521 0.57664,0.84629 0.60917,1.10794 0.52916,4.25681 -0.0942,3.70906 -0.29431,4.23587 -2.06693,5.4423 l -0.87469,0.59531 h -18.83945 -18.83946 z"
       style="fill:#000000;stroke-width:0.26458332" />
  </g>
</svg>
