<?xml version="1.0" encoding="UTF-8" standalone="no"?>
<svg
   xmlns:dc="http://purl.org/dc/elements/1.1/"
   xmlns:cc="http://creativecommons.org/ns#"
   xmlns:rdf="http://www.w3.org/1999/02/22-rdf-syntax-ns#"
   xmlns:svg="http://www.w3.org/2000/svg"
   xmlns="http://www.w3.org/2000/svg"
   id="svg8"
   version="1.1"
   viewBox="0 0 210 297"
   height="297mm"
   width="210mm">
  <defs
     id="defs2" />
  <metadata
     id="metadata5">
    <rdf:RDF>
      <cc:Work
         rdf:about="">
        <dc:format>image/svg+xml</dc:format>
        <dc:type
           rdf:resource="http://purl.org/dc/dcmitype/StillImage" />
        <dc:title></dc:title>
      </cc:Work>
    </rdf:RDF>
  </metadata>
  <g
     id="layer1">
    <path
       id="path4660"
       d="m 23.941766,177.4475 v -1.23702 h 83.408874 83.40887 v 1.23702 1.23703 H 107.35064 23.941766 Z M 33.68182,146.01252 V 123.81884 H 57.258935 80.83605 v 22.19368 22.19368 H 57.258935 33.68182 Z m 44.525961,0 V 126.29289 H 57.258935 36.310089 v 19.71963 19.71963 h 20.948846 20.948846 z m 5.565745,0 v -22.19368 h 23.577114 23.57711 v 22.19368 22.19368 H 107.35064 83.773526 Z m 44.525954,0 V 126.29289 H 107.35064 86.401795 v 19.71963 19.71963 h 20.948845 20.94884 z m 5.56575,0 v -22.19368 h 23.57711 23.57712 v 22.19368 22.19368 h -23.57712 -23.57711 z m 44.52596,0 V 126.29289 H 157.44234 136.4935 v 19.71963 19.71963 h 20.94884 20.94885 z M 23.941766,114.57753 v -1.23702 h 83.408874 83.40887 v 1.23702 1.23703 H 107.35064 23.941766 Z"
       style="fill:#000000;stroke-width:0.14999962" />
  </g>
</svg>
