<?xml version="1.0" encoding="UTF-8" standalone="no"?>
<!-- Created with Inkscape (http://www.inkscape.org/) -->

<svg
   xmlns:dc="http://purl.org/dc/elements/1.1/"
   xmlns:cc="http://creativecommons.org/ns#"
   xmlns:rdf="http://www.w3.org/1999/02/22-rdf-syntax-ns#"
   xmlns:svg="http://www.w3.org/2000/svg"
   xmlns="http://www.w3.org/2000/svg"
   xmlns:sodipodi="http://sodipodi.sourceforge.net/DTD/sodipodi-0.dtd"
   xmlns:inkscape="http://www.inkscape.org/namespaces/inkscape"
   width="210mm"
   height="297mm"
   viewBox="0 0 210 297"
   version="1.1"
   id="svg8"
   inkscape:version="0.92.1 r15371"
   sodipodi:docname="Tree.svg">
  <defs
     id="defs2" />
  <sodipodi:namedview
     id="base"
     pagecolor="#ffffff"
     bordercolor="#666666"
     borderopacity="1.0"
     inkscape:pageopacity="0.0"
     inkscape:pageshadow="2"
     inkscape:zoom="0.35"
     inkscape:cx="-271.15051"
     inkscape:cy="543.81195"
     inkscape:document-units="mm"
     inkscape:current-layer="layer1"
     showgrid="false"
     inkscape:window-width="1920"
     inkscape:window-height="1017"
     inkscape:window-x="-8"
     inkscape:window-y="-8"
     inkscape:window-maximized="1" />
  <metadata
     id="metadata5">
    <rdf:RDF>
      <cc:Work
         rdf:about="">
        <dc:format>image/svg+xml</dc:format>
        <dc:type
           rdf:resource="http://purl.org/dc/dcmitype/StillImage" />
        <dc:title></dc:title>
      </cc:Work>
    </rdf:RDF>
  </metadata>
  <g
     inkscape:label="Layer 1"
     inkscape:groupmode="layer"
     id="layer1">
    <path
       style="fill:#000000;stroke-width:0.26458335"
       d="m 153.12781,220.77298 c -6.54993,-0.65635 -12.15379,-5.51826 -13.82753,-11.99677 -0.52905,-2.04777 -0.52577,-5.90967 0.007,-7.9375 0.90751,-3.45578 2.98119,-6.63863 5.61328,-8.6157 0.83905,-0.63025 1.62469,-1.22753 1.74587,-1.3273 0.1726,-0.1421 -14.87498,-24.292 -15.70663,-25.20761 -0.11271,-0.12409 -1.07971,0.20155 -2.14889,0.72363 -1.06919,0.52208 -2.65835,1.13273 -3.53147,1.357 -2.09764,0.53879 -5.76617,0.53188 -7.94665,-0.0149 -0.96022,-0.24081 -1.79924,-0.38445 -1.8645,-0.31919 -0.19725,0.19724 -11.48781,23.77302 -11.48781,23.98765 0,0.10958 0.58509,0.57835 1.3002,1.04173 6.76494,4.38353 8.7544,14.26253 4.25361,21.12199 -5.53755,8.43954 -17.540915,9.45749 -24.301024,2.06085 -2.742777,-3.00103 -4.03628,-6.34753 -4.03628,-10.44247 0,-8.57063 6.733053,-15.36444 15.24433,-15.38189 1.31398,-0.003 2.68463,0.0648 3.04588,0.15009 0.635044,0.14984 0.851714,-0.2529 6.533484,-12.14465 l 5.87665,-12.29963 -2.0621,-2.0621 c -3.27975,-3.27975 -4.8115,-6.96479 -4.8115,-11.57536 0,-2.8728 0.48558,-4.90139 1.80331,-7.53366 0.95575,-1.90918 3.40144,-4.75382 5.14503,-5.98429 l 0.71555,-0.50497 -5.96246,-10.50649 -5.96246,-10.50649 -0.970804,0.37271 c -1.90687,0.73209 -3.27753,0.95476 -5.810047,0.94389 -2.811468,-0.0121 -4.388538,-0.34893 -6.890946,-1.47195 -0.90324,-0.40535 -1.68034,-0.68986 -1.726891,-0.63225 -1.165495,1.44242 -15.859154,21.05287 -15.923212,21.25144 -0.05049,0.1565 0.631714,0.8115 1.516009,1.45553 3.780655,2.75349 6.051249,7.4766 6.051249,12.58736 0,5.48513 -2.476384,10.22487 -6.922067,13.24866 -9.251296,6.2924 -21.918282,1.53577 -24.712544,-9.27991 -0.52905,-2.04778 -0.525767,-5.90968 0.0067,-7.9375 1.512012,-5.75775 5.878989,-10.12473 11.636738,-11.63674 1.758206,-0.46171 5.75233,-0.54358 7.400906,-0.15169 0.577996,0.13739 1.069478,0.22663 1.092177,0.19829 0.55118,-0.68811 16.467098,-21.84012 16.591539,-22.0499 0.09871,-0.16639 -0.354507,-0.95114 -1.007136,-1.74388 -1.39632,-1.6961 -2.862162,-4.75001 -3.294499,-6.86371 -0.391023,-1.91173 -0.393751,-5.11707 -0.006,-7.05057 0.917776,-4.57647 4.649094,-9.29427 8.988639,-11.36505 2.619664,-1.25007 4.467217,-1.67552 7.276042,-1.67552 5.052843,0 9.600257,2.13321 12.857887,6.0317 1.22529,1.46634 2.9481,4.91436 3.39587,6.79647 0.39729,1.66992 0.39395,5.82649 -0.006,7.47536 -0.75301,3.10442 -2.66313,6.32616 -5.08376,8.57463 l -1.00683,0.93522 5.99149,10.57415 c 3.29532,5.81579 6.03213,10.61555 6.08181,10.66614 0.0497,0.0506 0.7236,-0.0445 1.49763,-0.21135 1.96793,-0.42418 5.60823,-0.36761 7.49274,0.11643 5.80073,1.48996 10.41687,6.10586 11.90981,11.90919 0.52748,2.05042 0.52335,5.91224 -0.008,7.9375 -0.52979,2.01745 -1.46019,4.05677 -2.53122,5.54815 -0.4616,0.64278 -0.77257,1.32428 -0.69104,1.51443 0.0815,0.19016 3.83248,6.12028 8.33543,13.17804 l 8.18719,12.83229 1.0252,-0.0389 c 3.89055,-0.14761 5.96457,-0.0628 7.3752,0.30166 6.47486,1.6728 11.34078,7.28128 11.99676,13.82753 0.61789,6.16606 -1.96601,11.76554 -6.97529,15.11596 -3.18887,2.13284 -6.84898,3.02766 -10.77492,2.63426 z m 6.98303,-5.04568 c 2.58066,-1.27544 4.44691,-3.14255 5.72409,-5.72675 0.97155,-1.9658 0.98383,-2.03061 0.98383,-5.19309 0,-3.16133 -0.0126,-3.22794 -0.98187,-5.18913 -1.23956,-2.50808 -3.43914,-4.6755 -5.95349,-5.86647 -1.71172,-0.81078 -1.94469,-0.85065 -4.97089,-0.85065 -3.02619,0 -3.25917,0.0399 -4.97088,0.85065 -2.51436,1.19097 -4.71393,3.35839 -5.95349,5.86647 -0.96857,1.95976 -0.98188,2.02991 -0.98188,5.17541 0,3.03886 0.0398,3.27277 0.84705,4.97692 0.96382,2.03469 3.07538,4.41206 4.83433,5.44287 2.28614,1.33977 3.59946,1.65013 6.6407,1.56933 2.62037,-0.0696 2.92252,-0.13631 4.7825,-1.05556 z m -58.67366,-0.16994 c 2.31367,-1.13902 4.35049,-3.17767 5.49253,-5.49749 0.85094,-1.72851 0.88697,-1.92574 0.88697,-4.85553 0,-2.92979 -0.036,-3.12702 -0.88697,-4.85554 -1.14405,-2.32389 -3.17839,-4.35823 -5.50229,-5.50228 -1.728514,-0.85094 -1.925744,-0.88697 -4.855534,-0.88697 -2.929795,0 -3.12702,0.036 -4.855538,0.88697 -2.323894,1.14405 -4.358233,3.17839 -5.502283,5.50228 -0.850662,1.72794 -0.886973,1.9265 -0.886973,4.84997 0,2.61572 0.08576,3.23429 0.604361,4.35913 1.401498,3.03986 4.006252,5.47504 6.992927,6.53768 1.092676,0.38876 1.980554,0.48079 4.059696,0.42077 2.39866,-0.0692 2.83791,-0.16384 4.453104,-0.95899 z M 126.50016,163.096 c 2.69081,-1.28037 4.7318,-3.32018 6.01895,-6.01547 0.9411,-1.97065 0.96215,-2.08421 0.96215,-5.18973 0,-3.10553 -0.0211,-3.21909 -0.96215,-5.18974 -1.28544,-2.69169 -3.32725,-4.73351 -6.01895,-6.01895 -1.97064,-0.94109 -2.08421,-0.96215 -5.18973,-0.96215 -3.10552,0 -3.21909,0.0211 -5.18973,0.96215 -2.6917,1.28544 -4.73351,3.32726 -6.01895,6.01895 -0.9411,1.97065 -0.96215,2.08421 -0.96215,5.18974 0,3.10552 0.0211,3.21908 0.96215,5.18973 1.543,3.23103 4.26215,5.59557 7.7691,6.75592 0.67333,0.22278 2.06896,0.32617 3.83645,0.2842 2.57757,-0.0612 2.92358,-0.13518 4.79286,-1.02465 z m -60.316414,-0.81454 c 2.580669,-1.27543 4.446919,-3.14254 5.724099,-5.72675 0.97155,-1.96579 0.98383,-2.0306 0.98383,-5.19308 0,-3.16134 -0.01259,-3.22795 -0.981874,-5.18913 -1.23956,-2.50808 -3.439137,-4.67551 -5.953491,-5.86647 -1.711716,-0.81078 -1.944692,-0.85065 -4.970885,-0.85065 -3.026194,0 -3.25917,0.0399 -4.970886,0.85065 -2.514354,1.19096 -4.713931,3.35839 -5.953491,5.86647 -0.968565,1.95976 -0.981874,2.0299 -0.981874,5.17541 0,3.03885 0.03981,3.27276 0.847051,4.97691 0.963816,2.0347 3.075376,4.41206 4.834329,5.44288 2.286135,1.33976 3.599458,1.65013 6.6407,1.56932 2.620368,-0.0696 2.922516,-0.13631 4.782492,-1.05556 z m 31.68699,-48.59506 c 3.952304,-1.2301 7.214814,-4.5823 8.366944,-8.59697 0.60804,-2.11876 0.43176,-6.0647 -0.36235,-8.11088 -1.12354,-2.89503 -4.26862,-6.03536 -7.186784,-7.17591 -2.21884,-0.86724 -6.033075,-0.97855 -8.443456,-0.24642 -3.578831,1.08703 -7.124652,4.59384 -8.215278,8.12487 -0.706684,2.28797 -0.722643,5.55122 -0.03791,7.75127 1.171276,3.76331 4.415272,7.04295 8.145312,8.23482 2.103345,0.67208 5.607892,0.68079 7.733522,0.0192 z"
       id="path4530"
       inkscape:connector-curvature="0" />
  </g>
</svg>
