<?xml version="1.0" encoding="UTF-8" standalone="no"?>
<svg
   xmlns:dc="http://purl.org/dc/elements/1.1/"
   xmlns:cc="http://creativecommons.org/ns#"
   xmlns:rdf="http://www.w3.org/1999/02/22-rdf-syntax-ns#"
   xmlns:svg="http://www.w3.org/2000/svg"
   xmlns="http://www.w3.org/2000/svg"
   id="svg8"
   version="1.1"
   viewBox="0 0 210 297"
   height="297mm"
   width="210mm">
  <defs
     id="defs2" />
  <metadata
     id="metadata5">
    <rdf:RDF>
      <cc:Work
         rdf:about="">
        <dc:format>image/svg+xml</dc:format>
        <dc:type
           rdf:resource="http://purl.org/dc/dcmitype/StillImage" />
        <dc:title></dc:title>
      </cc:Work>
    </rdf:RDF>
  </metadata>
  <g
     id="layer1">
    <path
       id="path4535"
       d="m 44.254327,192.61568 c -0.0052,-16.84404 -0.0011,-42.90915 0.0092,-57.92247 0.01265,-18.54126 -0.06917,-27.35122 -0.255115,-27.46614 -0.184866,-0.11425 -0.273747,-6.95063 -0.273747,-21.055648 V 65.284955 h 65.352085 65.35208 v 20.902083 c 0,18.403242 -0.0474,20.902082 -0.39688,20.902082 -0.35157,0 -0.39687,6.62928 -0.39687,58.07604 V 223.2412 H 108.95442 44.263796 Z m 127.803213,-0.8599 V 162.12245 H 108.95442 45.851296 v 29.63333 29.63334 h 63.103124 63.10312 z m -87.841662,0 v -4.7625 h 0.907349 0.907346 l 1.268637,3.83646 c 0.697751,2.11005 1.33124,3.83589 1.407755,3.83519 0.07652,-7.9e-4 0.730338,-1.7271 1.452936,-3.83646 l 1.313812,-3.83519 h 0.869 0.868998 v 4.7625 4.7625 h -0.661459 -0.661458 l -0.02085,-3.77031 -0.02082,-3.77031 -1.256448,3.70417 c -1.125408,3.31785 -1.323686,3.71227 -1.90119,3.78187 -0.607065,0.0732 -0.712023,-0.12785 -1.79597,-3.43959 -0.633174,-1.9345 -1.256543,-3.63039 -1.385266,-3.76864 -0.136475,-0.14657 -0.234037,1.31486 -0.234037,3.50573 0,3.58069 -0.02484,3.75708 -0.529167,3.75708 -0.509569,0 -0.529166,-0.17639 -0.529166,-4.7625 z m 11.965799,4.24795 c -0.994256,-0.62424 -1.382466,-1.45414 -1.382466,-2.95539 0,-2.65428 2.442085,-4.21228 4.739962,-3.024 0.783517,0.40517 1.610037,1.82388 1.610037,2.76362 0,0.52683 -0.13506,0.55532 -2.632067,0.55532 h -2.632072 l 0.278649,0.79934 c 0.50759,1.45607 2.504843,1.85422 3.290033,0.65587 0.51018,-0.77864 1.430867,-0.89344 1.430867,-0.17841 0,1.52619 -3.047726,2.42285 -4.702943,1.38365 z m 3.644616,-3.92449 c 0,-0.11314 -0.18535,-0.47033 -0.41188,-0.79375 -0.74066,-1.05745 -3.292286,-0.55864 -3.292286,0.64359 0,0.26421 0.477028,0.35587 1.852083,0.35587 1.018643,0 1.852083,-0.0926 1.852083,-0.20571 z m 3.326187,4.02327 c -0.32214,-0.32214 -0.41577,-1.00736 -0.41577,-3.04271 0,-2.15866 -0.0707,-2.62693 -0.39688,-2.62693 -0.21828,0 -0.39687,-0.1786 -0.39687,-0.39688 0,-0.21828 0.17859,-0.39687 0.39687,-0.39687 0.27355,0 0.39688,-0.27457 0.39688,-0.88357 0,-0.68572 0.14811,-0.95106 0.66146,-1.18496 0.65195,-0.29705 0.66145,-0.28435 0.66145,0.88358 0,1.00856 0.0788,1.18495 0.52917,1.18495 0.29398,0 0.52917,0.17639 0.52917,0.39687 0,0.22049 -0.23519,0.39688 -0.52917,0.39688 -0.49203,0 -0.52917,0.17639 -0.52917,2.51354 0,2.28527 0.0453,2.51354 0.49831,2.51354 0.27579,0 0.5601,0.2363 0.63669,0.52917 0.11795,0.45105 0.008,0.52916 -0.74399,0.52916 -0.48531,0 -1.06947,-0.18709 -1.29815,-0.41577 z m 3.02381,-4.34673 v -4.7625 h 0.66146 c 0.6383,0 0.66146,0.0607 0.66146,1.7348 v 1.73479 l 0.58804,-0.41188 c 0.86289,-0.60439 2.17298,-0.51499 3.01053,0.20544 0.67858,0.58368 0.7245,0.77105 0.84319,3.43958 l 0.12552,2.82227 h -0.69614 -0.69614 v -2.49464 c 0,-1.91508 -0.0966,-2.59123 -0.41578,-2.91041 -0.52952,-0.52953 -1.41847,-0.53112 -2.17118,-0.004 -0.53708,0.37618 -0.58804,0.62843 -0.58804,2.91041 0,2.48872 -0.003,2.49854 -0.66146,2.49854 h -0.66146 v -4.7625 z m 8.83394,4.50319 c -1.11176,-0.44919 -1.69019,-1.54836 -1.69019,-3.21178 0,-1.31891 0.1088,-1.66941 0.73619,-2.37158 0.92398,-1.03411 2.69217,-1.32953 3.97799,-0.66461 2.16745,1.12084 2.20361,4.99587 0.057,6.10593 -0.84447,0.43669 -2.19735,0.49907 -3.08097,0.14204 z m 2.80773,-1.32819 c 0.38805,-0.38805 0.52916,-0.88194 0.52916,-1.85208 0,-1.61617 -0.62439,-2.38125 -1.94336,-2.38125 -1.2635,0 -1.89309,0.79195 -1.89309,2.38125 0,0.87499 0.15604,1.43979 0.50402,1.82431 0.6577,0.72675 2.0901,0.74094 2.80327,0.0278 z m 3.92154,0.82865 c -0.76166,-0.68055 -0.86082,-0.93952 -0.96078,-2.50944 -0.10944,-1.71867 -0.094,-1.76804 0.84635,-2.7084 0.83307,-0.83307 1.08689,-0.94256 1.94879,-0.84068 0.54503,0.0644 1.19933,0.20869 1.45399,0.32057 0.41264,0.18128 0.46302,0.0276 0.46302,-1.41239 0,-1.43942 0.0578,-1.61581 0.52917,-1.61581 0.50957,0 0.52917,0.17639 0.52917,4.7625 0,4.51709 -0.0261,4.7625 -0.50712,4.7625 -0.27892,0 -0.5525,-0.13613 -0.60796,-0.30252 -0.0757,-0.22698 -0.242,-0.22698 -0.66611,0 -0.98736,0.52842 -2.11688,0.35822 -3.02852,-0.45633 z m 3.22221,-0.82865 c 0.85897,-0.85897 0.62884,-3.36366 -0.37034,-4.03084 -0.56433,-0.37681 -1.67015,-0.19604 -2.16834,0.35446 -0.34799,0.38451 -0.50403,0.94931 -0.50403,1.8243 0,1.51771 0.63854,2.38125 1.7608,2.38125 0.414,0 0.99086,-0.23812 1.28191,-0.52917 z m 4.36562,1.28198 c -0.72248,-0.39517 -1.19062,-1.02314 -1.19062,-1.59713 0,-0.66166 0.97759,-0.62064 1.19043,0.05 0.18785,0.59188 1.01251,0.87899 2.15103,0.74887 0.60562,-0.0692 0.75958,-0.21793 0.75958,-0.73376 0,-0.56527 -0.20881,-0.70845 -1.65377,-1.13398 -1.85887,-0.54742 -2.61771,-1.34042 -2.34032,-2.44565 0.50846,-2.02587 5.18471,-1.76688 5.18471,0.28715 0,0.56728 -1.00388,0.43451 -1.33061,-0.17598 -0.23514,-0.43937 -0.50316,-0.52812 -1.39837,-0.46303 -0.89258,0.0649 -1.1229,0.18855 -1.18696,0.63724 -0.0681,0.47694 0.15935,0.623 1.5875,1.01944 0.91684,0.25452 1.87534,0.64753 2.13001,0.87337 0.47119,0.41787 0.59523,1.2637 0.29866,2.03655 -0.38931,1.01451 -2.97647,1.56686 -4.20127,0.89695 z m 42.73021,-62.7976 V 106.55995 H 108.95442 45.851296 v 26.85521 26.85521 h 63.103124 63.10312 z m -90.686306,4.56406 c 3.159643,-8.53837 3.458062,-9.19427 4.183195,-9.19427 0.670626,0 0.808471,0.24199 2.449202,4.29948 0.95622,2.36472 1.821223,4.51733 1.92223,4.78359 0.155347,0.40951 0.06618,0.47066 -0.578662,0.39687 -0.654905,-0.0749 -0.832985,-0.28441 -1.263931,-1.48676 l -0.501618,-1.39952 -1.985108,0.0766 -1.98511,0.0766 -0.52696,1.38906 c -0.439756,1.15919 -0.635244,1.38906 -1.181293,1.38906 -0.412351,0 -0.609071,-0.12231 -0.531945,-0.33073 z m 5.710962,-3.84735 c -0.04851,-0.11514 -0.378103,-1.0081 -0.732435,-1.98438 -0.354333,-0.97627 -0.71152,-1.77446 -0.79375,-1.77375 -0.08223,7.9e-4 -0.466402,0.89367 -0.853721,1.98437 l -0.704209,1.98309 h 1.586156 c 0.872384,0 1.546468,-0.0942 1.497959,-0.20933 z m 4.508264,3.74127 c -0.237103,-0.28522 -0.394684,-1.34117 -0.454064,-3.04271 -0.07048,-2.01967 -0.174641,-2.60589 -0.463021,-2.60589 -0.204645,0 -0.372081,-0.1786 -0.372081,-0.39688 0,-0.21828 0.171051,-0.39687 0.380111,-0.39687 0.232011,0 0.412414,-0.32334 0.463021,-0.82987 0.0503,-0.50342 0.31709,-0.98448 0.678222,-1.2229 0.588185,-0.38832 0.595313,-0.37838 0.595313,0.82987 0,1.04651 0.07633,1.2229 0.529166,1.2229 0.293982,0 0.529167,0.17639 0.529167,0.39687 0,0.22049 -0.235185,0.39688 -0.529167,0.39688 -0.490077,0 -0.529166,0.17639 -0.529166,2.3878 0,2.30353 0.02334,2.39667 0.661458,2.63928 0.363802,0.13832 0.661458,0.43303 0.661458,0.65491 0,0.56405 -1.675384,0.53804 -2.150417,-0.0334 z m 3.704167,0 c -0.237104,-0.28522 -0.394684,-1.34117 -0.454065,-3.04271 -0.07048,-2.01967 -0.174641,-2.60589 -0.46302,-2.60589 -0.204645,0 -0.372081,-0.1786 -0.372081,-0.39688 0,-0.21828 0.17105,-0.39687 0.380111,-0.39687 0.23201,0 0.412414,-0.32334 0.46302,-0.82987 0.0503,-0.50342 0.31709,-0.98448 0.678223,-1.2229 0.588184,-0.38832 0.595312,-0.37838 0.595312,0.82987 0,1.04651 0.07633,1.2229 0.529167,1.2229 0.293981,0 0.529167,0.17639 0.529167,0.39687 0,0.22049 -0.235186,0.39688 -0.529167,0.39688 -0.490077,0 -0.529167,0.17639 -0.529167,2.3878 0,2.30353 0.02334,2.39667 0.661459,2.63928 0.363802,0.13832 0.661458,0.43303 0.661458,0.65491 0,0.56405 -1.675384,0.53804 -2.150417,-0.0334 z m 2.944167,-3.00277 v -3.43958 h 0.661459 c 0.3638,0 0.66146,0.11651 0.66146,0.25891 0,0.1596 0.24623,0.14672 0.641947,-0.0336 0.8393,-0.38241 2.03893,-0.0954 1.83394,0.43882 -0.0932,0.24279 -0.49856,0.39418 -1.05554,0.39418 -1.172897,0 -1.420347,0.62529 -1.420347,3.5891 0,2.20413 -0.008,2.23173 -0.66146,2.23173 h -0.661459 z m 4.497916,0 v -3.43958 h 0.66146 0.66145 v 3.43958 3.43958 h -0.66145 -0.66146 z m 3.175,-1.32292 c 0,-4.58611 0.0196,-4.7625 0.52916,-4.7625 0.47537,0 0.52917,0.17639 0.52917,1.7348 v 1.73479 l 0.58804,-0.41188 c 0.932,-0.65279 2.19578,-0.51753 3.15264,0.33743 0.70415,0.62915 0.85799,0.98284 0.95939,2.20568 0.14456,1.74315 -0.36527,2.92755 -1.51641,3.52283 -0.99211,0.51304 -1.85311,0.50955 -2.59562,-0.0105 -0.53222,-0.37278 -0.58804,-0.37278 -0.58804,0 0,0.23549 -0.22662,0.41188 -0.52917,0.41188 -0.50957,0 -0.52916,-0.17639 -0.52916,-4.7625 z m 4.13659,3.02559 c 0.58671,-0.89543 0.55702,-2.89997 -0.0529,-3.57397 -0.59866,-0.66151 -1.82486,-0.65207 -2.49615,0.0192 -0.65884,0.65884 -0.72692,2.77492 -0.11729,3.64529 0.60345,0.86155 2.07529,0.81157 2.66638,-0.0905 z m 3.88959,1.10505 c -0.70184,-0.60369 -0.73921,-0.757 -0.83852,-3.43958 l -0.10393,-2.80772 h 0.69147 0.69146 v 2.49464 c 0,2.72352 0.2671,3.32619 1.47411,3.32619 1.29884,0 1.70089,-0.81305 1.70089,-3.43958 0,-2.36361 0.005,-2.38125 0.66146,-2.38125 h 0.66146 v 3.43958 c 0,3.26319 -0.0271,3.43958 -0.52917,3.43958 -0.29398,0 -0.52916,-0.17639 -0.52916,-0.39687 0,-0.49381 -0.24952,-0.4915 -0.91047,0.008 -0.78181,0.59133 -2.12739,0.48104 -2.9696,-0.2434 z m 7.2859,0.19505 c -0.2371,-0.28522 -0.39468,-1.34117 -0.45407,-3.04271 -0.0705,-2.01967 -0.17464,-2.60589 -0.46302,-2.60589 -0.20464,0 -0.37208,-0.1786 -0.37208,-0.39688 0,-0.21828 0.17105,-0.39687 0.38011,-0.39687 0.23201,0 0.41242,-0.32334 0.46303,-0.82987 0.0503,-0.50342 0.31708,-0.98448 0.67822,-1.2229 0.58818,-0.38832 0.59531,-0.37838 0.59531,0.82987 0,1.04651 0.0763,1.2229 0.52917,1.2229 0.29398,0 0.52916,0.17639 0.52916,0.39687 0,0.22049 -0.23518,0.39688 -0.52916,0.39688 -0.49008,0 -0.52917,0.17639 -0.52917,2.3878 0,2.30353 0.0233,2.39667 0.66146,2.63928 0.3638,0.13832 0.66146,0.43303 0.66146,0.65491 0,0.56405 -1.67539,0.53804 -2.15042,-0.0334 z m 4.10321,-0.0684 c -1.9344,-1.17956 -1.84839,-4.74629 0.14283,-5.92253 2.05864,-1.21607 4.78354,0.25257 4.78354,2.57818 v 0.67459 h -2.51354 c -2.24994,0 -2.51354,0.0503 -2.51354,0.47928 0,1.51848 2.41829,2.2142 3.39231,0.97593 0.52196,-0.66356 1.63477,-0.91571 1.63477,-0.37042 0,0.16008 -0.40481,0.69586 -0.89958,1.19063 -0.74786,0.74786 -1.0937,0.89942 -2.05052,0.89859 -0.66397,-5.3e-4 -1.50014,-0.21392 -1.97627,-0.50425 z m 3.60346,-4.03799 c 0,-1.19284 -2.20971,-1.71373 -3.175,-0.74843 -0.87161,0.8716 -0.6382,1.05833 1.32291,1.05833 1.23887,0 1.85209,-0.10261 1.85209,-0.3099 z m 3.18646,3.80165 c -0.90762,-0.90761 -1.00444,-1.31524 -0.37022,-1.55861 0.28926,-0.111 0.60691,0.0691 0.94811,0.53747 0.80408,1.10383 3.11481,0.90562 3.11481,-0.26718 0,-0.18511 -0.68461,-0.53072 -1.52135,-0.76801 -2.2136,-0.62776 -2.71198,-1.01069 -2.71198,-2.08377 0,-1.21268 0.98756,-1.99748 2.51354,-1.99748 1.27412,0 2.51354,0.79226 2.51354,1.6067 0,0.68481 -0.83575,0.66254 -1.27066,-0.0339 -0.27147,-0.43468 -0.56302,-0.52761 -1.45271,-0.46302 -0.90976,0.066 -1.11309,0.17746 -1.11309,0.60997 0,0.4141 0.35278,0.64423 1.62234,1.05833 2.03817,0.6648 2.47871,1.03946 2.47871,2.10806 0,1.20274 -0.76322,1.79268 -2.50618,1.93722 -1.32671,0.11002 -1.50283,0.0562 -2.24486,-0.68582 z m -29.38021,-8.12196 c 0,-0.52916 0.13229,-0.66146 0.66146,-0.66146 0.52916,0 0.66145,0.1323 0.66145,0.66146 0,0.52917 -0.13229,0.66146 -0.66145,0.66146 -0.52917,0 -0.66146,-0.13229 -0.66146,-0.66146 z M 171.52837,86.187038 V 68.195372 H 109.08671 46.645046 V 86.187038 104.1787 h 62.441664 62.44166 z m -81.289507,8.218281 c -1.466374,-0.47204 -2.549337,-1.36618 -3.156183,-2.60586 -0.572024,-1.16855 -0.616489,-1.62456 -0.708533,-7.266067 l -0.0982,-6.019271 h 1.748091 1.748094 v 5.830141 c 0,6.442907 0.08772,6.836557 1.644441,7.379227 1.767139,0.61603 3.708681,0.0593 4.187759,-1.20072 0.139269,-0.36631 0.253217,-3.218105 0.253217,-6.337331 v -5.671317 h 1.604534 1.60453 l -0.0832,6.416146 c -0.0787,6.074202 -0.11421,6.466032 -0.665415,7.352262 -0.947428,1.52326 -2.464411,2.20218 -5.106038,2.28516 -1.237072,0.0389 -2.574972,-0.0342 -2.973112,-0.16237 z m 12.233257,-7.963628 v -7.947427 l 2.42992,0.07607 2.42991,0.07607 1.3404,5.092102 c 0.73722,2.800654 1.39993,5.092358 1.47269,5.09267 0.0728,2.65e-4 0.73135,-2.29113 1.46352,-5.092099 l 1.33124,-5.092673 2.43908,-0.07607 2.43908,-0.07607 v 7.947427 7.947428 h -1.41455 -1.41455 l -0.17295,-3.21654 c -0.0951,-1.76909 -0.18269,-4.418235 -0.19459,-5.886977 l -0.0216,-2.670439 -1.45517,5.886979 -1.45518,5.886977 h -1.5557 -1.5557 l -0.25161,-0.99219 c -0.13837,-0.5457 -0.78904,-3.19484 -1.44592,-5.886975 l -1.19433,-4.894791 -0.0195,2.670439 c -0.0107,1.468742 -0.0973,4.117887 -0.19242,5.886977 l -0.17295,3.21654 h -1.41455 -1.41455 z m 18.52084,0.0099 v -7.9375 h 1.71979 1.71979 v 6.614583 6.614585 h 3.96875 3.96875 v 1.32292 1.32291 h -5.68854 -5.68854 z"
       style="fill:#000000;stroke-width:0.26458332" />
  </g>
</svg>
