<?xml version="1.0" encoding="UTF-8" standalone="no"?>
<!-- Created with Inkscape (http://www.inkscape.org/) -->

<svg
   xmlns:dc="http://purl.org/dc/elements/1.1/"
   xmlns:cc="http://creativecommons.org/ns#"
   xmlns:rdf="http://www.w3.org/1999/02/22-rdf-syntax-ns#"
   xmlns:svg="http://www.w3.org/2000/svg"
   xmlns="http://www.w3.org/2000/svg"
   xmlns:sodipodi="http://sodipodi.sourceforge.net/DTD/sodipodi-0.dtd"
   xmlns:inkscape="http://www.inkscape.org/namespaces/inkscape"
   width="210mm"
   height="297mm"
   viewBox="0 0 210 297"
   version="1.1"
   id="svg8"
   inkscape:version="0.92.1 r15371"
   sodipodi:docname="Variables.svg">
  <defs
     id="defs2" />
  <sodipodi:namedview
     id="base"
     pagecolor="#ffffff"
     bordercolor="#666666"
     borderopacity="1.0"
     inkscape:pageopacity="0.0"
     inkscape:pageshadow="2"
     inkscape:zoom="0.35"
     inkscape:cx="-271.15051"
     inkscape:cy="543.81195"
     inkscape:document-units="mm"
     inkscape:current-layer="layer1"
     showgrid="false"
     inkscape:window-width="1920"
     inkscape:window-height="1017"
     inkscape:window-x="-8"
     inkscape:window-y="-8"
     inkscape:window-maximized="1" />
  <metadata
     id="metadata5">
    <rdf:RDF>
      <cc:Work
         rdf:about="">
        <dc:format>image/svg+xml</dc:format>
        <dc:type
           rdf:resource="http://purl.org/dc/dcmitype/StillImage" />
        <dc:title></dc:title>
      </cc:Work>
    </rdf:RDF>
  </metadata>
  <g
     inkscape:label="Layer 1"
     inkscape:groupmode="layer"
     id="layer1">
    <path
       style="fill:#000000;stroke-width:0.26458332"
       d="m 59.871426,166.82499 v -50.00625 h 1.984375 1.984375 v 48.02188 48.02187 h 46.037494 46.0375 v -48.02187 -48.02188 h 1.98438 1.98437 v 50.00625 50.00625 H 109.87767 59.871426 Z M 95.148924,137.25504 C 87.12087,126.23336 80.512902,117.09656 80.464549,116.95103 c -0.05683,-0.17103 2.508094,-0.28945 7.254272,-0.33491 l 7.342187,-0.0703 V 98.558307 80.570827 h 14.816662 14.81667 v 17.99167 17.991663 h 7.40833 c 4.07459,0 7.40834,0.0617 7.40834,0.1372 0,0.20458 -29.3879,40.46593 -29.59109,40.53972 -0.096,0.0349 -6.74294,-8.95435 -14.770996,-19.97604 z m 26.186796,-1.32663 11.32575,-15.53779 -5.63721,-0.13229 -5.63721,-0.1323 -0.068,-18.0578 -0.068,-18.057813 H 109.87767 98.504264 l -0.06798,18.057813 -0.06798,18.0578 -5.613824,0.1323 -5.61382,0.13229 11.302362,15.5373 c 6.216298,8.54552 11.361888,15.53753 11.434648,15.5378 0.0728,2.6e-4 5.22888,-6.99152 11.45805,-15.53731 z"
       id="path4543"
       inkscape:connector-curvature="0" />
  </g>
</svg>
