<?xml version="1.0" encoding="UTF-8" standalone="no"?>
<!-- Created with Inkscape (http://www.inkscape.org/) -->

<svg
   xmlns:dc="http://purl.org/dc/elements/1.1/"
   xmlns:cc="http://creativecommons.org/ns#"
   xmlns:rdf="http://www.w3.org/1999/02/22-rdf-syntax-ns#"
   xmlns:svg="http://www.w3.org/2000/svg"
   xmlns="http://www.w3.org/2000/svg"
   xmlns:sodipodi="http://sodipodi.sourceforge.net/DTD/sodipodi-0.dtd"
   xmlns:inkscape="http://www.inkscape.org/namespaces/inkscape"
   width="210mm"
   height="297mm"
   viewBox="0 0 210 297"
   version="1.1"
   id="svg8"
   inkscape:version="0.92.1 r15371"
   sodipodi:docname="Variables2.svg">
  <defs
     id="defs2" />
  <sodipodi:namedview
     id="base"
     pagecolor="#ffffff"
     bordercolor="#666666"
     borderopacity="1.0"
     inkscape:pageopacity="0.0"
     inkscape:pageshadow="2"
     inkscape:zoom="0.35"
     inkscape:cx="-271.15051"
     inkscape:cy="543.81195"
     inkscape:document-units="mm"
     inkscape:current-layer="layer1"
     showgrid="false"
     inkscape:window-width="1920"
     inkscape:window-height="1017"
     inkscape:window-x="-8"
     inkscape:window-y="-8"
     inkscape:window-maximized="1" />
  <metadata
     id="metadata5">
    <rdf:RDF>
      <cc:Work
         rdf:about="">
        <dc:format>image/svg+xml</dc:format>
        <dc:type
           rdf:resource="http://purl.org/dc/dcmitype/StillImage" />
        <dc:title></dc:title>
      </cc:Work>
    </rdf:RDF>
  </metadata>
  <g
     inkscape:label="Layer 1"
     inkscape:groupmode="layer"
     id="layer1">
    <path
       style="fill:#000000;stroke-width:0.26458332"
       d="m 60.740774,168.20461 v -50.00625 h 1.984375 1.984375 v 48.02187 48.02188 h 46.037496 46.0375 v -48.02188 -48.02187 h 1.98438 1.98437 v 50.00625 50.00625 H 110.74702 60.740774 Z m 8.732725,31.28698 c 8.2e-4,-4.03821 0.11871,-7.76419 0.261997,-8.27997 0.362416,-1.30456 1.733567,-2.54676 3.176111,-2.87742 0.654843,-0.1501 3.958828,-0.27582 7.342187,-0.27937 l 6.151562,-0.006 v -5.02709 -5.02708 h -7.89138 -7.891378 l -0.575287,-0.61236 c -0.715114,-0.76121 -0.746025,-2.02843 -0.06986,-2.86406 l 0.505427,-0.62462 7.365926,-0.0852 c 9.165923,-0.10606 9.866913,-0.0315 11.223437,1.19406 1.478642,1.33586 1.616236,2.13542 1.518502,8.82409 -0.09369,6.4121 -0.127572,6.54101 -2.066028,7.86031 -0.852451,0.58017 -1.052021,0.59531 -7.847026,0.59531 h -6.972331 v 5.15938 5.15937 h 7.693268 7.693271 l 0.773395,0.7734 c 0.425371,0.42537 0.773399,1.02984 0.773399,1.34327 0,0.31343 -0.348028,0.9179 -0.773399,1.34327 l -0.773395,0.77339 h -9.809938 -9.809934 l 0.0015,-7.34218 z m 63.882281,6.97002 c -0.92325,-0.40214 -2.1687,-1.77698 -2.37777,-2.62479 -0.078,-0.31621 -0.1077,-6.60872 -0.0661,-13.98336 0.0738,-13.06898 0.0895,-13.42693 0.62122,-14.13886 0.30003,-0.40173 0.87406,-0.9759 1.2756,-1.27594 0.69029,-0.51577 1.13424,-0.54977 8.14375,-0.62357 7.03833,-0.0741 7.46937,-0.0505 8.51398,0.46687 0.60518,0.29971 1.33845,0.87061 1.62949,1.26868 0.51082,0.69867 0.53162,1.20072 0.60007,14.48209 0.0805,15.62683 0.15668,15.02766 -2.05862,16.19914 -1.10471,0.58418 -1.34926,0.6016 -8.3065,0.59155 -5.35955,-0.008 -7.37187,-0.099 -7.97515,-0.36181 z m 14.43291,-16.16429 v -12.30313 h -6.35 -6.35 v 12.30313 12.30312 h 6.35 6.35 z m -40.08438,10.95185 c -1.04269,-0.59511 -1.19062,-1.05809 -1.19062,-3.72638 0,-3.70703 0.41791,-4.04632 4.77741,-3.87867 2.28413,0.0878 2.44776,0.13377 3.07497,0.86313 0.6219,0.7232 0.65693,0.9212 0.57222,3.23423 -0.12574,3.43353 -0.35052,3.64367 -3.99957,3.73902 -1.67147,0.0437 -2.90745,-0.0447 -3.23441,-0.23133 z M 96.018272,138.63466 C 87.990218,127.61297 81.38225,118.47617 81.333897,118.33065 c -0.05683,-0.17104 2.508094,-0.28945 7.254272,-0.33492 l 7.342187,-0.0703 V 99.937923 81.950433 h 14.816664 14.81667 v 17.99167 17.991667 h 7.40833 c 4.07459,0 7.40833,0.0618 7.40833,0.13721 0,0.20458 -29.38789,40.46593 -29.59108,40.53972 -0.096,0.0349 -6.74295,-8.95436 -14.770998,-19.97604 z m 26.186798,-1.32663 11.32575,-15.5378 -5.63721,-0.13229 -5.63721,-0.13229 -0.068,-18.05782 -0.068,-18.057807 H 110.74702 99.373612 l -0.06798,18.057807 -0.06798,18.05782 -5.613823,0.13229 -5.613821,0.13229 11.302362,15.53731 c 6.2163,8.54551 11.36189,15.53752 11.43465,15.53779 0.0728,2.6e-4 5.22888,-6.99152 11.45805,-15.5373 z"
       id="path4556"
       inkscape:connector-curvature="0" />
  </g>
</svg>
